<svg width="137" height="65" fill="none" xmlns="http://www.w3.org/2000/svg"><path opacity=".2" d="M105.037 65c-4.382 0-8.592-.818-12.63-2.453a32.495 32.495 0 01-10.44-7.231c-2.92-3.1-5.284-6.8-7.088-11.105-1.718-4.39-2.578-9.254-2.578-14.591 0-6.973.945-13.257 2.836-18.852C77.027 5.086 79.605.008 82.87-4.47a55.466 55.466 0 0111.857-11.88c4.554-3.357 9.494-6.24 14.821-8.651l8.635 8.135c-5.756 3.357-10.224 7.016-13.403 10.975-3.094 3.96-5.242 8.652-6.445 14.075a42.72 42.72 0 013.867-.904c1.375-.258 3.05-.387 5.026-.387 4.468 0 8.507.645 12.115 1.937 3.695 1.291 6.831 3.185 9.409 5.681 2.663 2.41 4.682 5.423 6.057 9.039C136.27 27.166 137 31.298 137 35.947c0 4.046-.73 7.834-2.191 11.363-1.375 3.53-3.437 6.628-6.186 9.297-2.664 2.582-6.015 4.648-10.053 6.198-3.952 1.463-8.463 2.195-13.533 2.195zm-72.301 0c-4.382 0-8.592-.818-12.63-2.453a32.495 32.495 0 01-10.44-7.231c-2.921-3.1-5.284-6.8-7.088-11.105C.859 39.82 0 34.957 0 29.62c0-6.973.945-13.257 2.835-18.852C4.725 5.086 7.303.008 10.568-4.47a55.466 55.466 0 0111.857-11.88c4.554-3.357 9.495-6.24 14.822-8.651l8.635 8.135C40.125-13.508 35.657-9.85 32.478-5.89c-3.093 3.96-5.241 8.652-6.444 14.075a42.735 42.735 0 013.867-.904c1.374-.258 3.05-.387 5.026-.387 4.468 0 8.506.645 12.115 1.937 3.694 1.291 6.83 3.185 9.408 5.681 2.664 2.41 4.683 5.423 6.058 9.039 1.46 3.615 2.19 7.747 2.19 12.396 0 4.046-.73 7.834-2.19 11.363-1.375 3.53-3.437 6.628-6.187 9.297-2.663 2.582-6.014 4.648-10.052 6.198C42.316 64.268 37.805 65 32.736 65z" fill="#D4B982"/></svg>