<svg width="701" height="540" fill="none" xmlns="http://www.w3.org/2000/svg"><path d="M70.164 349.012l-3.785 52.879h50.506l-3.478-52.981-43.243.102z" fill="#D4B982"/><path d="M80.187 353.647c0-.817.777-1.47 1.739-1.47.961 0 1.739.653 1.739 1.45 0 .796-.778 1.47-1.74 1.47-.96.021-1.738-.633-1.738-1.45zm1.718-.898c-.654 0-1.166.408-1.166.898 0 .49.532.899 1.166.899.655 0 1.166-.409 1.166-.899.02-.51-.511-.898-1.166-.898zM97.39 353.607h.287-.286c0-.347.143-.674.409-.939.327-.327.818-.511 1.33-.511.961 0 1.738.654 1.738 1.45 0 .409-.184.776-.532 1.062a1.91 1.91 0 01-1.207.409c-.94 0-1.718-.654-1.738-1.471zm1.74-.898c-.369 0-.696.122-.921.347a.82.82 0 00-.246.551c0 .491.532.899 1.166.899.328 0 .634-.102.86-.286.204-.163.327-.388.327-.613-.021-.49-.532-.898-1.187-.898z" fill="#EAE6FF"/><path d="M90.006 364.289h.49c3.171-.102 5.585-1.123 7.18-3.022 2.64-3.146 2.046-7.537 2.026-7.721a.542.542 0 00-.634-.469.555.555 0 00-.47.633c0 .041.552 4.085-1.78 6.862-1.391 1.634-3.519 2.533-6.342 2.615-2.74.081-4.786-.634-6.136-2.145-2.476-2.737-1.862-7.251-1.862-7.291a.557.557 0 00-.47-.634c-.287-.04-.594.164-.635.47-.02.204-.695 5.065 2.128 8.19 1.493 1.655 3.682 2.512 6.505 2.512z" fill="#EAE6FF"/><path d="M93.912 363.82l-6.034 39.317 54.842-.123-5.544-39.296-43.264.102z" fill="#B89B61"/><path d="M73.6 430.198c-6.137 0-11.128 4.984-11.128 11.111 0 6.127 4.991 11.111 11.128 11.111 6.137 0 11.128-4.984 11.128-11.111 0-6.127-4.991-11.111-11.128-11.111zm0 16.279a5.143 5.143 0 01-5.155-5.147 5.156 5.156 0 015.155-5.147c2.864 0 5.196 2.308 5.196 5.147 0 2.839-2.332 5.147-5.196 5.147z" fill="#292620"/><path d="M71.78 430.198c-6.137 0-11.129 4.984-11.129 11.111 0 6.127 4.992 11.111 11.128 11.111 6.137 0 11.128-4.984 11.128-11.111 0-6.127-4.99-11.111-11.128-11.111zm0 16.279a5.143 5.143 0 01-5.156-5.147 5.156 5.156 0 015.155-5.147c2.864 0 5.196 2.308 5.196 5.147a5.19 5.19 0 01-5.196 5.147z" fill="#5C5C5C"/><path d="M136.46 430.198c-6.136 0-11.127 4.984-11.127 11.111 0 6.127 4.991 11.111 11.127 11.111 6.137 0 11.128-4.984 11.128-11.111 0-6.127-4.991-11.111-11.128-11.111zm0 16.279a5.142 5.142 0 01-5.154-5.147 5.155 5.155 0 015.154-5.147c2.864 0 5.196 2.308 5.196 5.147a5.19 5.19 0 01-5.196 5.147z" fill="#292620"/><path d="M134.62 430.198c-6.137 0-11.128 4.984-11.128 11.111 0 6.127 4.991 11.111 11.128 11.111 6.136 0 11.128-4.984 11.128-11.111 0-6.127-4.992-11.111-11.128-11.111zm0 16.279a5.142 5.142 0 01-5.155-5.147 5.155 5.155 0 015.155-5.147c2.863 0 5.195 2.308 5.195 5.147 0 2.839-2.332 5.147-5.195 5.147z" fill="#5C5C5C"/><path d="M220.412 305.528h-33.425a10.147 10.147 0 00-8.633 4.8l-20.21 32.393" stroke="#5C5C5C" stroke-width="1.5" stroke-miterlimit="10"/><path d="M68.343 402.237h74.684a8.104 8.104 0 007.998-6.801l7.732-48.14c.798-4.923-3.007-9.375-7.998-9.375H60.611c-4.992 0-8.776 4.452-7.999 9.375l7.733 48.14a8.088 8.088 0 007.998 6.801zM105.675 337.921v64.316M155.096 370.09H56.274M135.172 337.921l-6.382 64.316M77.65 337.921l5.912 64.316" stroke="#5C5C5C" stroke-width="1.5" stroke-miterlimit="10"/><path d="M149.266 399.317l12.11 17.974c3.293 4.881-.225 11.458-6.116 11.458H56.274" stroke="#5C5C5C" stroke-width="1.5" stroke-miterlimit="10"/><path d="M409.362 407.834H306.898v27.512h102.464v-27.512z" fill="#292620"/><path d="M517.062 416.821H200.283c-10.596 0-19.208-8.578-19.208-19.179V180.858c0-10.58 8.592-19.178 19.208-19.178h316.779c10.596 0 19.208 8.578 19.208 19.178v216.805c0 10.58-8.612 19.158-19.208 19.158z" fill="#292620"/><path d="M513.462 392.352H202.8c-6.526 0-11.803-5.269-11.803-11.784v-197.79c0-6.515 5.277-11.785 11.803-11.785h310.662c6.525 0 11.803 5.27 11.803 11.785v197.79c0 6.515-5.278 11.784-11.803 11.784z" fill="#F8F8F8"/><path d="M453.403 450.317H262.857v-2.39c0-8.251 6.71-14.95 14.974-14.95h160.578c8.264 0 14.974 6.699 14.974 14.95v2.39h.02z" fill="#292620"/><path opacity=".35" d="M494.458 343.252H281.063c-5.666 0-10.248-4.575-10.248-10.232V196.503c0-5.657 4.582-10.232 10.248-10.232h213.395c5.667 0 10.249 4.575 10.249 10.232v136.496a10.237 10.237 0 01-10.249 10.253z" fill="#fff"/><g opacity=".25"><g opacity=".25"><path opacity=".25" d="M303.237 300.953H293.05v25.531h10.187v-25.531z" fill="#D4B982"/><path opacity=".25" d="M326.188 278.526h-10.187v47.957h10.187v-47.957z" fill="#B1AFFD"/><path opacity=".25" d="M349.161 283.49h-10.187v42.994h10.187V283.49z" fill="#D4B982"/><path opacity=".25" d="M372.112 259.205h-10.187v67.278h10.187v-67.278z" fill="#B1AFFD"/><g opacity=".15"><path opacity=".26" d="M320.686 278.526h-4.685v47.957h4.685v-47.957z" fill="#000"/></g><g opacity=".15"><path opacity=".26" d="M297.735 300.953h-4.685v25.531h4.685v-25.531z" fill="#000"/></g><g opacity=".62"><path opacity=".26" d="M366.609 259.205h-4.684v67.278h4.684v-67.278z" fill="#000"/></g><g opacity=".15"><path opacity=".26" d="M343.658 283.49h-4.684v42.994h4.684V283.49z" fill="#000"/></g><path opacity=".25" d="M377.512 333.509H286.32v-96.934h1.391v95.545h89.801v1.389z" fill="#D5DBDA"/><path opacity=".25" d="M295.689 288.983l-.92-1.041 23.851-21.385 22.092 4.8 23.913-26.592 1.043.939-24.465 27.185-22.194-4.82-23.32 20.914z" fill="#D5DBDA"/><path opacity=".25" d="M367.53 249.626l-6.73-6.454 8.694-2.328-1.964 8.782z" fill="#D5DBDA"/><g opacity=".25"><path opacity=".25" d="M393.14 299.135h-6.995v6.985h6.995v-6.985z" fill="#B1AFFD"/><path opacity=".25" d="M393.14 311.369h-6.995v6.985h6.995v-6.985z" fill="#D4B982"/><path opacity=".25" d="M417.237 314.392h-22.174v3.962h22.174v-3.962zM417.237 302.157h-22.174v3.963h22.174v-3.963z" fill="#EFEFEF"/></g><g opacity=".25"><path opacity=".25" d="M434.277 299.135h-6.996v6.985h6.996v-6.985z" fill="#B1AFFD"/><path opacity=".25" d="M434.277 311.369h-6.996v6.985h6.996v-6.985z" fill="#D4B982"/><path opacity=".25" d="M458.374 314.392H436.2v3.962h22.174v-3.962zM458.374 302.157H436.2v3.963h22.174v-3.963z" fill="#EFEFEF"/></g><g opacity=".25"><path opacity=".25" d="M471.323 299.135h-6.996v6.985h6.996v-6.985z" fill="#B1AFFD"/><path opacity=".25" d="M471.323 311.369h-6.996v6.985h6.996v-6.985z" fill="#D4B982"/><path opacity=".25" d="M487.851 314.392h-14.585v3.962h14.585v-3.962zM487.851 302.157h-14.585v3.963h14.585v-3.963z" fill="#EFEFEF"/></g><g opacity=".25"><path opacity=".25" d="M487.851 232.389H387.454v1.817h100.397v-1.817zM487.851 210.023H286.32v4.167h201.531v-4.167zM487.851 238.046H387.147v1.818h100.704v-1.818zM487.851 226.71H387.147v1.818h100.704v-1.818zM487.851 243.724H387.147v1.817h100.704v-1.817zM487.851 249.401H387.147v1.818h100.704v-1.818zM487.851 255.059H387.147v1.817h100.704v-1.817zM487.851 260.737H387.147v1.818h100.704v-1.818zM487.851 266.395H387.147v1.817h100.704v-1.817zM487.851 272.072H387.147v1.818h100.704v-1.818zM487.851 277.73h-88.37v1.818h88.37v-1.818z" fill="#EFEFEF"/></g></g><path opacity=".25" d="M494.458 186.271H281.063c-5.666 0-10.248 4.575-10.248 10.232v8.946h233.892v-8.946c0-5.637-4.582-10.232-10.249-10.232z" fill="#7A7AE5"/><path opacity=".25" d="M474.636 196.217a2.944 2.944 0 01-2.945 2.942 2.945 2.945 0 01-2.946-2.942 2.945 2.945 0 012.946-2.941 2.957 2.957 0 012.945 2.941zM483.719 199.159a2.944 2.944 0 002.946-2.942 2.944 2.944 0 00-2.946-2.941 2.944 2.944 0 00-2.946 2.941 2.944 2.944 0 002.946 2.942zM495.767 199.159a2.944 2.944 0 002.946-2.942 2.944 2.944 0 00-2.946-2.941 2.944 2.944 0 00-2.946 2.941 2.944 2.944 0 002.946 2.942z" fill="#CFCFFF"/></g><path opacity=".55" d="M432.334 377.973H218.939c-5.666 0-10.249-4.575-10.249-10.233V231.244c0-5.657 4.583-10.232 10.249-10.232h213.395c5.666 0 10.248 4.575 10.248 10.232V367.74c0 5.658-4.582 10.233-10.248 10.233z" fill="#F8F8F8"/><path d="M437.079 371.867H223.684c-5.666 0-10.248-4.576-10.248-10.233V225.138c0-5.658 4.582-10.233 10.248-10.233h213.395c5.667 0 10.249 4.575 10.249 10.233v136.496c0 5.637-4.582 10.233-10.249 10.233z" fill="#fff"/><path d="M245.858 329.548h-10.187v25.53h10.187v-25.53zM268.81 307.142h-10.187v47.956h10.187v-47.956zM291.761 312.085h-10.187v42.993h10.187v-42.993zM314.733 287.82h-10.187v67.278h10.187V287.82z" fill="#D4B982"/><g opacity=".15"><path opacity=".26" d="M263.307 307.142h-4.684v47.956h4.684v-47.956z" fill="#000"/></g><g opacity=".15"><path opacity=".26" d="M240.356 329.548h-4.685v25.53h4.685v-25.53z" fill="#000"/></g><g opacity=".62"><path opacity=".26" d="M309.23 287.82h-4.684v67.278h4.684V287.82z" fill="#000"/></g><g opacity=".15"><path opacity=".26" d="M286.259 312.085h-4.685v42.993h4.685v-42.993z" fill="#000"/></g><path d="M320.113 362.125h-91.172v-88.274h1.391v86.885h89.781v1.389z" fill="#D5DBDA"/><path d="M238.31 317.6l-.941-1.042 23.852-21.384 22.092 4.799 23.933-26.592 1.043.919-24.465 27.205-22.194-4.82-23.32 20.915z" fill="#D5DBDA"/><path d="M310.151 278.241l-6.751-6.474 8.715-2.329-1.964 8.803z" fill="#D5DBDA"/><path d="M335.741 327.75h-6.996v6.985h6.996v-6.985zM335.741 339.984h-6.996v6.985h6.996v-6.985z" fill="#D4B982"/><path d="M359.859 343.008h-22.174v3.962h22.174v-3.962zM359.859 330.753h-22.174v3.962h22.174v-3.962z" fill="#EFEFEF"/><path d="M376.898 327.75h-6.996v6.985h6.996v-6.985zM376.898 339.984h-6.996v6.985h6.996v-6.985z" fill="#D4B982"/><path d="M400.995 343.008h-22.174v3.962h22.174v-3.962zM400.995 330.753h-22.174v3.962h22.174v-3.962z" fill="#EFEFEF"/><path d="M413.944 327.75h-6.996v6.985h6.996v-6.985zM413.944 339.984h-6.996v6.985h6.996v-6.985z" fill="#D4B982"/><path d="M430.451 343.008h-14.585v3.962h14.585v-3.962zM430.451 330.753h-14.585v3.962h14.585v-3.962zM430.452 261.003H330.055v1.818h100.397v-1.818zM430.472 238.618H228.941v4.167h201.531v-4.167zM430.472 266.661H329.768v1.818h100.704v-1.818zM430.472 255.325H329.768v1.818h100.704v-1.818zM430.472 272.339H329.768v1.818h100.704v-1.818zM430.472 277.996H329.768v1.818h100.704v-1.818zM430.472 283.675H329.768v1.818h100.704v-1.818zM430.472 289.332H329.768v1.818h100.704v-1.818zM430.472 295.01H329.768v1.818h100.704v-1.818zM430.472 300.667H329.768v1.818h100.704v-1.818zM430.452 306.346h-88.369v1.817h88.369v-1.817z" fill="#EFEFEF"/><path d="M437.079 214.885H223.684c-5.666 0-10.248 4.575-10.248 10.232v8.946h233.892v-8.946c0-5.657-4.582-10.232-10.249-10.232z" fill="#D4B982"/><path d="M417.237 224.832a2.944 2.944 0 01-2.946 2.941 2.957 2.957 0 01-2.945-2.941 2.956 2.956 0 012.945-2.941 2.944 2.944 0 012.946 2.941zM429.286 224.832a2.944 2.944 0 01-2.946 2.941 2.944 2.944 0 01-2.945-2.941 2.956 2.956 0 012.945-2.941 2.944 2.944 0 012.946 2.941zM441.334 224.832a2.943 2.943 0 01-2.945 2.941 2.944 2.944 0 01-2.946-2.941 2.957 2.957 0 012.946-2.941 2.943 2.943 0 012.945 2.941z" fill="#B89B61"/><path opacity=".35" d="M516.019 161.863h-54.76c.368 17.729.675 35.477.9 53.206.04 2.716 0 5.514-.982 8.027h-.082c-.716-.041-.409.183-.655 1.491 0 .02-.02.04-.02.061-2.209 3.615-6.546 5.576-10.739 6.515-.041.225 0 .409.061.592-.491.429-.716.981-.43 1.655.246.592 3.396 1.389 7.671.939 1.228-.122 3.621-.796 4.746-1.307.675-.306 1.268-.776 1.739-1.184a5.922 5.922 0 001.595-.388l.164.163 4.909-2.124s-.531-3.084-.961-4.698a2.945 2.945 0 00-.327-.756c4.091-11.11 7.343-22.507 9.614-34.129-.9 14.4-6.075 43.668-6.464 44.668-.655 1.696-2.905 4.085-6.239 4.371-1.166.102-6.873-.224-6.26 2.39.144.633 3.11 1.961 7.405 2.247 1.228.081 3.703-.164 4.91-.47 1.595-.429 3.048-1.655 3.048-1.655l.654.879 5.196-1.246s0-1.348-.041-2.982c-.041-1.634-1.104-3.166-1.104-3.166l.081-2.941 2.885-.347s5.789-18.689 8.53-25.04c1.125-2.615 2.393-5.209 3.109-7.966.839-3.247.92-6.617 1.186-9.967a87.865 87.865 0 013.355-17.974c.102-.367.225-.755.491-1.041.45-.511 1.207-.592 1.902-.654 7.365-.674 10.74.572 15.342-.858 6.076-1.879 6.71-4.636 7.017-4.758-2.271-1.022-4.807-1.553-7.446-1.553zM536.27 284.267V220.85c-9.471 12.377-18.84 23.467-28.311 35.865-4.112 5.371-20.21 23.161-9.226 30.31 2.803 1.817 7.692 1.736 10.126 1.919 8.755.613 17.449-1.797 25.958-4.207.471-.163.962-.306 1.453-.47zM536.27 297.91l-5.278.409-.102-.307-4.112.327-1.227-3.492c-.695-1.982-3.027-3.452-5.175-3.289-2.148.184-3.335 1.92-2.619 3.922.205.613.819 2.287 1.228 3.451l-4.316.327.081.307-8.898.694c-1.411 0-3.477 1.818-3.027 3.084l.081.184c.021.102 0 .204.041.327l7.692 21.67-.205 91.297h8.919l16.896-65.583V297.91h.021zm-13.89-.674c-1.207.102-2.516-.735-2.904-1.838-.389-1.123.266-2.104 1.472-2.206 1.207-.102 2.516.736 2.905 1.838.409 1.124-.266 2.104-1.473 2.206zM203.392 260.289c-1.984 2.185-4.336 6.842-5.277 8.843-1.002 1.982-2.087 3.105-4.93 4.432-3.907 1.777-8.1 3.493-12.11 5.066v10.355c8.183-4.922 15.588-9.497 15.71-9.538 6.26 2.389 11.476-2.798 13.153-6.557.757-1.674-.368-2.369-.429-3.165-.021-.409.511-2.839.429-3.166-.491-2.186-6.361-.266-5.891-1.307.286-.797.982-2.655 2.455-3.656 2.884-1.961 5.093-4.146 5.093-4.963 0-1.41-7.507 2.92-8.203 3.656z" fill="#292620"/><path d="M644.153 472.395H534.49c-7.855 0-14.217-6.352-14.217-14.195V327.137c0-7.843 6.362-14.195 14.217-14.195h109.663c7.855 0 14.217 6.352 14.217 14.195V458.2c0 7.823-6.362 14.195-14.217 14.195z" fill="#D4B982"/><path d="M646.219 362.369H536.678a3.611 3.611 0 01-3.62-3.615v-25.51a3.611 3.611 0 013.62-3.615h109.541a3.611 3.611 0 013.621 3.615v25.51a3.625 3.625 0 01-3.621 3.615zM559.446 394.782h-22.768a3.611 3.611 0 01-3.62-3.615v-13.541a3.611 3.611 0 013.62-3.615h22.768a3.611 3.611 0 013.62 3.615v13.541c.021 1.981-1.616 3.615-3.62 3.615zM602.832 394.782h-22.767a3.611 3.611 0 01-3.621-3.615v-13.541a3.611 3.611 0 013.621-3.615h22.767a3.611 3.611 0 013.621 3.615v13.541a3.625 3.625 0 01-3.621 3.615zM646.219 394.782h-22.767a3.611 3.611 0 01-3.621-3.615v-13.541a3.611 3.611 0 013.621-3.615h22.767a3.611 3.611 0 013.621 3.615v13.541c0 1.981-1.637 3.615-3.621 3.615zM559.446 428.196h-22.768a3.611 3.611 0 01-3.62-3.615V411.04a3.611 3.611 0 013.62-3.615h22.768a3.611 3.611 0 013.62 3.615v13.541c.021 2.002-1.616 3.615-3.62 3.615zM602.832 428.196h-22.767a3.611 3.611 0 01-3.621-3.615V411.04a3.611 3.611 0 013.621-3.615h22.767a3.611 3.611 0 013.621 3.615v13.541a3.611 3.611 0 01-3.621 3.615zM559.446 461.611h-22.768a3.611 3.611 0 01-3.62-3.615v-13.541a3.611 3.611 0 013.62-3.615h22.768a3.611 3.611 0 013.62 3.615v13.541c.021 2.002-1.616 3.615-3.62 3.615zM602.832 461.611h-22.767a3.611 3.611 0 01-3.621-3.615v-13.541a3.611 3.611 0 013.621-3.615h22.767a3.611 3.611 0 013.621 3.615v13.541a3.611 3.611 0 01-3.621 3.615zM646.219 461.612h-22.767a3.612 3.612 0 01-3.621-3.616V411.02a3.612 3.612 0 013.621-3.615h22.767a3.612 3.612 0 013.621 3.615v46.976a3.625 3.625 0 01-3.621 3.616z" fill="#fff"/><g opacity=".45" fill="#fff"><path opacity=".45" d="M530.93 331.12a3.611 3.611 0 013.621-3.615h109.541a3.611 3.611 0 013.62 3.615v25.51a3.611 3.611 0 01-3.62 3.615H534.551M557.318 392.658h-22.767a3.611 3.611 0 01-3.621-3.615v-13.541a3.611 3.611 0 013.621-3.615h22.767a3.611 3.611 0 013.621 3.615v13.541c.02 2.002-1.616 3.615-3.621 3.615zM600.705 392.658h-22.767a3.611 3.611 0 01-3.621-3.615v-13.541a3.611 3.611 0 013.621-3.615h22.767a3.61 3.61 0 013.62 3.615v13.541a3.61 3.61 0 01-3.62 3.615zM644.092 392.658h-22.768a3.611 3.611 0 01-3.62-3.615v-13.541a3.611 3.611 0 013.62-3.615h22.768a3.611 3.611 0 013.62 3.615v13.541a3.611 3.611 0 01-3.62 3.615zM557.318 426.072h-22.767a3.611 3.611 0 01-3.621-3.615v-13.541a3.611 3.611 0 013.621-3.615h22.767a3.611 3.611 0 013.621 3.615v13.541c.02 2.002-1.616 3.615-3.621 3.615zM600.705 426.072h-22.767a3.611 3.611 0 01-3.621-3.615v-13.541a3.611 3.611 0 013.621-3.615h22.767a3.61 3.61 0 013.62 3.615v13.541a3.61 3.61 0 01-3.62 3.615zM557.318 459.508h-22.767a3.612 3.612 0 01-3.621-3.615v-13.542a3.612 3.612 0 013.621-3.615h22.767a3.612 3.612 0 013.621 3.615v13.542c.02 1.981-1.616 3.615-3.621 3.615zM600.705 459.508h-22.767a3.612 3.612 0 01-3.621-3.615v-13.542a3.612 3.612 0 013.621-3.615h22.767a3.611 3.611 0 013.62 3.615v13.542a3.624 3.624 0 01-3.62 3.615z"/></g><path opacity=".35" d="M520.273 350.544l3.702 9.722h15.485s-1.084 42.033-1.145 49.896c-.061 7.884 6.484 62.233 6.484 62.233h8.96l-.941-68.523 12.724-35.151s9.552 47.058 13.521 54.942c3.968 7.884 25.263 48.732 25.263 48.732h8.223l-21.11-90.112-9.062-31.311-45.699-21.323-16.405 1.614" fill="#D4B982"/><path d="M211.063 385.449l-7.201 74.651h70.88l-6.853-74.774-56.826.123z" fill="#D4B982"/><path d="M223.438 392.29c0-1.246 1.186-2.247 2.659-2.247 1.473 0 2.659 1.001 2.659 2.247s-1.186 2.246-2.659 2.246c-1.473-.02-2.659-1.021-2.659-2.246zm2.639-1.41c-1.003 0-1.8.634-1.8 1.389 0 .756.818 1.389 1.8 1.389 1.002 0 1.8-.633 1.8-1.389.02-.755-.798-1.389-1.8-1.389.02 0 0 0 0 0zM249.847 392.229h.429-.429c0-.531.225-1.042.613-1.45.512-.511 1.248-.797 2.025-.797h.021c1.452 0 2.659 1.001 2.659 2.247 0 .613-.286 1.185-.798 1.614-.491.408-1.145.633-1.841.633-1.472-.021-2.659-1.021-2.679-2.247zm2.659-1.389c-.552 0-1.084.204-1.412.552-.163.163-.368.449-.368.837 0 .756.819 1.389 1.8 1.389.491 0 .962-.163 1.31-.429.327-.265.491-.592.491-.96-.021-.776-.819-1.389-1.821-1.389z" fill="#292620"/><path d="M238.514 408.589c.246 0 .491 0 .757-.02 4.848-.164 8.551-1.716 11.006-4.637 4.05-4.82 3.129-11.56 3.088-11.846-.061-.469-.511-.817-.961-.715a.864.864 0 00-.736.96c0 .062.838 6.291-2.721 10.519-2.128 2.512-5.4 3.881-9.737 4.024-4.214.122-7.344-.96-9.43-3.289-3.785-4.207-2.844-11.111-2.844-11.192a.852.852 0 00-.736-.96.864.864 0 00-.961.735c-.041.306-1.064 7.761 3.252 12.561 2.332 2.573 5.687 3.86 10.023 3.86zM141.371 217.255c2.741 4.738.368 11.192 3.15 15.91 1.104 1.879 2.986 3.37 3.518 5.494.45 1.777-.245 3.799-1.698 4.943-1.452 1.144-3.579 1.328-5.196.47-.347-.184-.675-.409-1.063-.531-1.371-.409-2.598.817-3.785 1.613-1.452.981-3.334 1.43-4.991.878-2.127-.714-3.436-2.859-4.152-4.963-1.984-5.943-.573-12.438 1.248-18.422.92-2.982 2.27-6.312 5.195-7.394" fill="#292620"/><path d="M205.09 267.58c.041.654 1.043 1.226.389 2.614-1.494 3.085-6.137 7.374-11.681 5.393-.245.081-30.663 17.646-33.015 17.646-2.353 0-18.308-15.093-23.545-33.761-1.248-4.453-.757-9.702 3.416-11.949 0 0 3.478.838 5.748 5.107 3.457 6.515 13.808 28.103 16.119 28.92 2.864-1.899 16.795-6.045 28.086-10.824 2.516-1.103 3.478-2.023 4.378-3.656.839-1.655 2.925-5.495 4.684-7.292.614-.613 7.282-4.187 7.282-3.023 0 .674-1.963 2.472-4.52 4.085-1.309.838-1.923 2.369-2.169 3.023-.429.858 4.787-.715 5.217 1.082.081.286-.409 2.288-.389 2.635z" fill="#D4B982"/><path d="M139.447 246.992c3.948.919 7.2 3.452 9.082 7.026.491.919.859 1.879 1.248 2.839 1.616 4.126 3.846 7.843 5.462 11.948-2.209 1.777-4.889 2.615-7.16 3.452a15.114 15.114 0 01-6.668.899c-.389-.041-.778-.082-1.125-.245-.471-.225-.819-.613-1.166-1.001a74.042 74.042 0 01-2.025-2.431c-.573-.714-1.126-1.45-1.351-2.328-.327-1.185 0-2.43.328-3.615" fill="#5C5C5C"/><path opacity=".35" d="M143.436 258.226c-.143-.184-.307-.368-.511-.449-.409-.164-.88.102-1.084.49-.225.388-.225.837-.225 1.266.02 1.675.286 3.329.777 4.922l-.511 8.681s0 .02.02.02c2.107.123 4.255-.163 6.239-.899.941-.347 1.964-.714 2.987-1.123-1.105-4.902-4.439-9.027-7.692-12.908z" fill="#7762EF"/><path d="M129.956 238.352s-.123 5.433.716 5.801c1.657.714 3.518 1.082 3.518 1.082l.061 11.254-15.014-2.267-10.33-5.74s10.739-3.553 10.841-4.615c.103-1.063-.593-7.088-.593-7.088M106.861 401.155v.041c-4.112 19.464-2.148 46.179-3.069 60.824.225.061 5.585.735 5.585.735s12.703-61.743 15.014-73.569c.164-.817.266-1.593.287-2.287.552-8.905-7.467-9.355-12.008-2.002a28.919 28.919 0 00-2.066 3.962 54.424 54.424 0 00-.736 1.798v.02c-.757 1.92-1.412 4.003-1.984 6.209l-.041.225a28.119 28.119 0 00-.491 1.879l-.021.143a35.977 35.977 0 00-.47 2.022z" fill="#D4B982"/><path d="M130.937 331.324c-.143 1.614-1.002 9.273-2.045 18.3-.88 7.598-1.841 16.156-2.598 22.937-.552 5.086-.962 9.15-1.146 11.05a25.84 25.84 0 01-.45 3.288v.041c-1.943 8.884-8.08 9.395-11.823 7.332a7.786 7.786 0 01-1.412-.96c-.859-.776-1.432-1.716-1.595-2.614v-.021c-.246-1.817-.471-4.309-.696-7.271v-.041c-.02-.02-.02-.02-.02-.04l-.021-.062c-.45-5.78-.838-13.194-1.186-20.424-.409-8.885-.675-17.442-.736-22.283-.021-.286-.021-.531-.041-.797-.062-14.807 13.562-24.305 22.031-19.709.102.041.184.082.306.143.123.082.246.143.328.184.961.653 1.288 2.859 1.309 5.392.041 1.858-.082 3.88-.205 5.555z" fill="#D4B982"/><path d="M110.195 387.205l-1.043-3.881v.041c.02.878.122 7.128-1.289 13.541l-.041.225a31.701 31.701 0 01-.491 1.879l-.02.143c-.287 1.021-.43 1.675-.43 1.981v.041c-.021 1.757 3.743-6.045 4.602-7.884.103-.224.164-.367.164-.367l-1.023-4.065-.429-1.654zM139.549 404.873v.041c-.388 20.363 5.912 44.321 7.569 59.128.205 0 5.155-.653 5.155-.653s.941-62.417 1.002-74.753c0-.858-.041-1.655-.122-2.349-1.023-8.987-8.305-7.455-11.128 1.001a37.897 37.897 0 00-1.187 4.452 175.44 175.44 0 00-.368 1.961v.02a65.269 65.269 0 00-.736 6.679v.245a31.998 31.998 0 00-.123 2.002v.143l-.062 2.083z" fill="#D4B982"/><path d="M143.784 396.56a5.373 5.373 0 01-1.432-.633c-.921-.552-1.616-1.328-1.882-2.206v-.021c-.532-1.756-1.166-4.207-1.882-7.107-.02-.021-.02-.021-.02-.041l-.021-.082c-1.37-5.617-3.007-12.908-4.541-20.016-1.882-8.741-3.559-17.197-4.439-21.997-.061-.265-.818-3.758-.88-4.003-2.618-14.889 9.001-24.57 17.449-21.731.123.04.225.081.328.122 1.697.674 2.168 6.638 2.557 10.682.388 4.024 3.252 45.812 3.968 53.369.123 1.205.164 2.328.143 3.39-.163 9.334-5.625 11.397-9.348 10.274z" fill="#D4B982"/><path d="M140.184 390.167l-1.596-3.595c0 .021 0 .021.021.041.163.858 1.329 7.067 1.145 13.787v.245c-.02.653-.061 1.327-.122 2.001v.143c-.082 1.103-.103 1.757-.062 2.083v.041c.287 1.757 2.332-6.944 2.803-8.966.061-.265.102-.408.102-.408l-1.596-3.799-.695-1.573z" fill="#D4B982"/><path d="M114.266 302.73s-10.944 13.868-9.819 27.818c.47 5.801 1.186 10.927 1.841 16.748.102.838 1.411 13.113 1.043 13.113 0 0 22.542 6.964 44.328-2.165 0-1.491 1.739-30.024-10.023-57.229-14.197 2.022-27.37 1.715-27.37 1.715z" fill="#5C5C5C"/><path d="M148.53 270.705c-.082 3.983-2.21 6.393-5.237 9.742-.389.593-1.33 9.457-1.657 15.339-.164 3.064 1.145 4.984 0 5.249-4.378 3.799-20.129 6.904-27.37 1.695.757-6.413-2.107-20.526-4.05-27.695-.307-1.103-.573-2.042-.818-2.757-1.801-5.454-5.073-22.937-2.66-23.693.491-.142 1.228-.347 2.087-.612 3.784-1.144 9.369-3.084 9.369-3.084s3.273 9.681 11.782 10.845c4.644-1.92 4.234-7.782 4.173-10.478 1.514.429 2.189.838 6.894 2.227 1.329 1.899.184 5.861 2.311 11.784.573 1.451 5.278 6.597 5.176 11.438z" fill="#5C5C5C"/><path d="M140.818 216.152s.859 10.519-.941 16.013c-1.329 4.085-6.791 7.883-11.353 7.843-12.56 0-14.83-17.055-14.748-17.872.061-.817 18.533-7.986 18.533-7.986l8.509 2.002z" fill="#D4B982"/><path d="M164.752 469.924c-4.48.797-9.247-.449-11.21-.122-1.616.265-5.789 1.327-7.344-.062-1.555-1.388-1.309-6.331.491-6.985 0 0 .409.164 1.166.286 1.125.164 2.966.245 5.298-.429 3.396 1.389 3.539 2.002 7.405 2.798 1.677.348 3.641.899 4.93 1.491 1.657.756 1.78 2.574-.736 3.023zM116.455 471.906c-4.48-.756-7.323-3.227-9.287-3.574-1.616-.286-5.687-1.083-6.116-2.758-.328-1.246.92-6.392 2.822-6.413 0 0 .328.286 1.003.654 1.002.531 2.72 1.246 5.134 1.389 2.741 2.471 2.639 3.084 6.014 5.126 1.473.899 3.13 2.083 4.132 3.064 1.309 1.286-1.166 2.92-3.702 2.512z" fill="#5C5C5C"/><path d="M51.14 263.21l4.111-4.882 25.12 22.426s12.253-16.299 15.628-21.384c3.703-5.596 7.057-10.376 12.478-11.315 1.248.776-.429 20.853-1.084 21.343-7.569 5.658-22.317 23.917-27.002 24.857-5.42 1.082-29.251-31.045-29.251-31.045z" fill="#D4B982"/><path d="M110.339 247.136s-5.135.061-7.344 1.879c-2.209 1.818-12.744 18.484-12.744 18.484s-.266 3.145 2.762 5.8c3.252 2.819 7.589 3.289 7.589 3.289s5.298-5.249 8.264-7.639c1.861-1.491 2.045 2.206 2.045 2.206l9.328-9.089-9.9-14.93z" fill="#5C5C5C"/><path d="M107.229 247.34c-.286-.143-.552-.307-.818-.47-1.432-.858-2.761-1.757-3.375-3.391-.88-2.348-1.289-5.963-.061-8.251.818-1.552 2.373-2.553 3.457-3.942 1.472-1.92 1.902-4.432 2.025-6.863.123-2.41-.021-4.861.491-7.23.879-4.044 2.025-7.904 5.155-10.518 5.011-4.187 15.035-6.659 20.496-2.002 1.003.858 1.187 1.532 2.537 1.655 1.8.183 2.966.408 4.582 1.327 1.8 1.042 3.968 2.492 3.702 4.841-.184 1.634-2.025 4.187-3.416 4.963-.593.327-1.268.429-1.923.429-2.127.041-3.886-1.348-5.973-1.124-1.022.102-1.984.654-2.618 1.45-.757.92-.655 2.227-1.534 3.085-1.412 1.388-3.6 1.266-5.257 2.185-.287.143-.553.327-.716.592-.164.266-.164.593-.184.899-.041.878-.062 1.756-.103 2.635-.818-.368-.92-1.532-1.595-2.124-.655-.572-1.739-.409-2.393.163-.655.572-.982 1.43-1.146 2.287-.205 1.022.143 2.104.47 3.146.553 1.797 2.087 3.39 3.314 2.226.9 1.328-.082 3.534-.122 5.025-.021 1.184 0 3.533 1.104 4.309 1.023.715 2.639.163 2.7 2.022.062 1.695-1.636 3.002-3.313 3.207-1.678.204-3.335-.388-4.951-.858-1.616-.49-3.395-.858-4.971-.245-.961.367-1.779 1.082-2.802 1.246-.982.143-1.902-.205-2.762-.674z" fill="#292620"/><path d="M61.593 264.006s-5.912-4.718-6.3-6.025c-.41-1.287-.492-2.676-.983-3.942-.716-1.838-2.27-3.309-4.09-4.065-1.474-.612-.758-1.103-2.333-.796-2.393.47-3.518 2.798-4.48 4.636-4.07 7.802 7.078 9.273 7.487 9.293.818.041 4.97 4.739 4.97 4.739" fill="#D4B982"/><path d="M42.957 260.247l4.05 2.696a1.13 1.13 0 001.576-.347l8.878-14.848-5.258-2.962-9.532 13.93c-.368.49-.225 1.184.286 1.531z" fill="#292620"/><path d="M28.516 228.712l1.39.94 5.626-8.191-1.39-.939c-1.985-1.348-4.849-.613-6.404 1.654-1.554 2.267-1.206 5.188.778 6.536z" fill="#D4B982"/><path d="M23.381 238.7l25.877 3.922 5.912-8.599-13.072-22.589L23.381 238.7z" fill="#D4B982"/><path d="M25.018 239.047l24.24 3.574 2.352-3.431-20.394-9.15-6.198 9.007z" fill="#B89B61"/><path d="M59.895 248.872c1.391.939 3.396.429 4.48-1.164l1.043-1.532c1.084-1.573.839-3.636-.532-4.575-1.39-.94-3.395-.429-4.48 1.164l-1.043 1.532c-1.104 1.593-.859 3.635.532 4.575z" fill="#D4B982"/><path d="M60.406 242.764l-1.043 1.532c-1.084 1.593-.839 3.636.532 4.575 1.391.94 3.375.429 4.48-1.164l1.043-1.532c.082-.122.143-.245.205-.368-1.126 1.308-2.926 1.696-4.214.817-1.289-.878-1.575-2.696-.757-4.207a4.963 4.963 0 01-.246.347z" fill="#B89B61"/><path d="M22.522 239.537c.818.552 1.984.245 2.618-.674l17.756-25.837c.634-.919.49-2.124-.307-2.675-.818-.552-1.984-.245-2.618.674l-17.756 25.816c-.634.94-.49 2.145.307 2.696z" fill="#5C5C5C"/><path d="M43.04 210.841l-14.79 21.507c-.635.919-1.821 1.225-2.619.674a1.475 1.475 0 01-.45-.491l-2.966 4.31c-.634.919-.49 2.124.307 2.676.818.551 1.984.245 2.618-.674l17.756-25.837c.49-.674.532-1.552.143-2.165z" fill="#292620"/><path d="M51.528 247.135l1.678 1.144c2.475 1.675 6.054.755 7.977-2.063l1.657-2.431c1.944-2.818 1.514-6.474-.961-8.149l-1.678-1.144c-2.475-1.674-6.054-.755-7.977 2.063l-1.657 2.431c-1.944 2.818-1.493 6.474.961 8.149z" fill="#5C5C5C"/><path d="M50.669 238.843l-2.496 3.635c-.613.899-.47 2.043.307 2.574l7.794 5.31c.777.531 1.923.245 2.536-.653l2.496-3.636c-.614.899-1.739 1.185-2.537.654l-7.793-5.311c-.798-.51-.92-1.675-.307-2.573z" fill="#292620"/><path d="M43.816 256.51c-.327-2.267.184-4.432 1.432-6.066.43-.572.941-1.062 1.453-1.552.245-.245.511-.49.88-.572.572-.143 1.288.082 1.881.429.655.368 1.289.899 1.555 1.532.43 1.062-.307 1.94-1.146 2.471-.082.061-.184.102-.204.204-.041.143.061.327.143.491.368.653.675 1.368.593 2.022-.082.633-.634 1.164-1.39 1.041-.308-.041-.717-.163-.82.062-.04.081-.02.163 0 .265.083.654-.081 1.266-.47 1.695-.102.102-.204.204-.368.245-.123.021-.266-.02-.388-.061a6.396 6.396 0 01-1.392-.613" fill="#D4B982"/><path d="M55.251 258.307c-.143-.858-.45-2.287-.491-3.166-.082-2.369-1.35-4.738-3.416-5.923-.164-.102-.368-.184-.552-.163-.246.041-.41.286-.45.531-.041.245.04.49.102.735.245.756 1.309 2.165.982 2.921-.491 1.144-.88 2.41-.839 3.676.041 1.124.552 2.941 1.882 3.125" fill="#D4B982"/><path d="M25.243 198.934l5.216 12.275M14.38 209.84l10.678 7.986M7.507 224.688l13.256 1.308" stroke="#C4C4F7" stroke-width=".75" stroke-miterlimit="10" stroke-linecap="round" stroke-linejoin="round"/><path d="M432.62 95.71s-4.766-3.35-4.93-4.76c-.164-1.409-3.498-7.128-4.562-8.25-1.063-1.145-6.648-3.065-7.834-3.248-1.187-.164-8.039.408-7.18 1.348.859.94 5.277.592 6.137 1.103l.859.51s-.859 1.144-.512 1.859c.348.694-1.452 1.777-.777 2.961.675 1.185-.266 1.103.327 2.35 1.003 2.041 3.58 3.185 4.255 2.634.511 1.205 2.475 3.697 4.296 3.513 1.841-.164 6.28 4.003 6.28 4.003M505.299 71.832c.164 3.186-.061 8.762.86 9.58.92.816 3.866.694 3.866.694s-10.576 13.357-11.517 12.622c-.941-.735-13.46-10.907-10.637-11.438 2.803-.53 5.564-.408 5.482-1.859l-.245-4.35" fill="#D4B982"/><path d="M517.347 143.134s-20.639 2.349-25.385 2.431c-4.746.102-4.521-2.37-4.521-2.37-.245-5.228-1.125-17.524-2.107-21.69-.92-3.901-1.33-5.331-2.127-9.028-1.78-8.231-1.698-9.783-3.58-19.934l12.335-9.886s1.268 3.78 6.443 3.86c6.914.082 9.062-4.738 9.062-4.738l16.815 11.152 1.575 27.103-2.005 22.324" fill="#5C5C5C"/><path d="M505.524 68.932a35.173 35.173 0 01-1.452 4.739c-1.084 2.818-2.7 3.84-5.687 3.921-2.107.041-4.214.103-6.321.143-1.616.041-3.62.102-4.929-1.041-1.289-1.124-1.33-3.023-1.616-4.575a84.528 84.528 0 01-.9-6.005 88.459 88.459 0 01-.553-11.867c.021-.551.021-1.082.143-1.634.041-.224.123-.449.266-.592.205-.204.491-.245.757-.286a64.997 64.997 0 0111.946-.756c2.823.082 5.81.409 8.04 2.124 2.25 1.737 3.313 4.555 4.275 7.23.164.43.266 1.002-.102 1.267M459.253 216.621s.675 4.105 1.227 5.494c.553 1.409 5.155.102 5.462-.796.307-.899-1.452-7.578-1.452-7.578" fill="#D4B982"/><path d="M467.538 222.483c.388 1.511.9 4.411.9 4.411l-4.603 2.002-.757-.715s-1.145 1.389-2.557 2.042c-1.043.491-3.314 1.103-4.459 1.226-4.009.429-6.976-.327-7.221-.878-1.002-2.329 4.337-2.941 5.4-3.227 3.048-.797 4.726-3.37 5.053-5.045.225-1.226-.061-1.43.614-1.389 0 0 .593-.041 1.145.531.859.878 2.127 1.266 3.273.756.655-.286 1.268-.736 1.636-1.348 0 0 1.166.122 1.576 1.634z" fill="#292620"/><path d="M479.586 163.068c-7.2 1.409-16.221 1.511-23.483.551 1.023 2.9 3.518 6.638 4.459 10.743 3.13 13.521 4.214 31.699 5.012 42.953 0 0-1.514 2.88-6.321.694-7.2-17.769-19.781-53.777-19.658-61.579.143-9.947 25.018-12.336 43.223-14.787" fill="#5C5C5C"/><path d="M511.334 143.154c5.727 4.187-31.748 19.914-31.748 19.914a61.497 61.497 0 01-12.294 1.164c-.388-.735-.756-1.511-.92-2.328-.225-1.083-.102-2.226-.286-3.309-.369-2.124-1.903-3.921-3.744-5.045-1.841-1.123-3.989-1.634-6.116-1.981-5.073-.817-13.91-.245-13.91-.245 11.271-8.292 34.325-9.375 45.064-10.069 2.025 3.411 23.136 1.287 23.954 1.899z" fill="#5C5C5C"/><path d="M471.118 226.077s-.041 4.146.265 5.637c.287 1.471 5.053 1.001 5.503.164.45-.838-.123-7.7-.123-7.7" fill="#D4B982"/><path d="M478.277 233.287c.123 1.552.123 4.493.123 4.493l-4.869 1.164-.613-.837s-1.371 1.164-2.864 1.552c-1.125.286-3.457.511-4.603.45-4.03-.266-6.811-1.532-6.955-2.104-.572-2.451 4.787-2.145 5.871-2.247 3.13-.265 5.237-2.512 5.85-4.105.451-1.164.185-1.43.839-1.266 0 0 .593.081 1.043.735.696 1.001 1.882 1.634 3.089 1.307.696-.184 1.371-.49 1.841-1.062-.02.041 1.105.368 1.248 1.92z" fill="#292620"/><path d="M523.832 142.317s-11.475 1.144-25.406.817c-3.252 0-27.779 4.596-30.131 8.742-3.866 6.822 2.516 46.731 1.923 75.305 0 0 2.945 2.451 8.141.143 1.289-14.032 9.594-47.14 3.866-62.601 13.521 1.797 24.445 3.574 36.739-.49 2.884-.96 5.032-2.982 6.321-6.699 1.329-3.718.654-11.887-1.453-15.217zM491.962 82.637s-2.945.163-3.518.204c-2.455.204-4.971.51-7.282 1.368-3.335 1.246-5.707 4.33-8.428 6.76-2.618 2.33-16.201 15.258-18.738 15.728-2.536.469-24.771-14.747-24.771-14.747l-5.421 5.413s24.117 22.262 31.318 22.303c3.497.021 22.746-10.11 28.904-14.031l7.936-22.998z" fill="#5C5C5C"/><path opacity=".25" d="M455.183 115.418c-4.95.286-27.677-17.054-30.316-19.076l-1.043 1.041s24.118 22.263 31.318 22.304c2.905.02 16.753-7.006 24.874-11.622l2.107-1.205-1.248-7.475c-.04-.02-20.414 15.747-25.692 16.033z" fill="#5C5C5C"/><path d="M432.047 146.769h55.231l-9.901-32.23a4.253 4.253 0 00-4.05-3.002h-48.358c-1.841 0-3.17 1.797-2.638 3.554l9.716 31.678z" fill="#D4B982"/><path d="M431.352 146.769h54.392l-9.901-32.23a4.253 4.253 0 00-4.05-3.002h-48.358c-1.841 0-3.17 1.797-2.639 3.554l9.492 30.882c.123.49.552.796 1.064.796z" fill="#B89B61"/><path opacity=".25" d="M516.264 98.18c-2.741 12.418-3.232 22.119-4.01 30.984-9.655 3.737-13.582 9.313-23.012 13.5 0 0-7.467-1.246-8.244 1.573-.45 1.613 8.735 2.9 8.735 2.9 8.755.041 31.829-6.352 33.383-6.781 1.555-.429 6.117-29.717 6.301-45.607.02-2.267-.062-4.698-1.473-6.475-.736-.919-1.78-1.552-2.843-2.104-6.158-3.145-10.719-4.003-17.613-4.432" fill="#CE4A30"/><path d="M490.53 144.584c-1.043-1.307-2.925-1.491-4.602-1.45a31.34 31.34 0 00-3.682.286c-.553.082-1.207.204-1.248.817-.062.613 2.7 0 4.152.408a70.028 70.028 0 01-8.53.225c-.327-.02-.675-.02-.982.102-.306.123-.572.409-.552.756.021.265.205.47.389.653.798.715 1.882 1.001 2.945 1.185 4.357.756 8.94.633 12.969-1.144" fill="#D4B982"/><path d="M515.649 97.935c-.225 13.255-1.166 19.342-.92 32.597-6.669 1.43-15.894 8.966-25.345 13.153 0 0-.552 1.879.307 3.452.716.266 31.85-7.312 34.325-9.579 2.23-2.042 5.175-26.919 5.359-42.81.021-2.267-.061-4.697-1.472-6.474-.737-.919-1.78-1.552-2.844-2.104-6.157-3.145-10.719-4.003-17.612-4.432" fill="#5C5C5C"/><path opacity=".45" d="M459.417 129.715c.204 2.819-3.15 5.127-7.467 5.127-4.316 0-7.998-2.288-8.182-5.127-.204-2.818 3.15-5.126 7.467-5.126 4.316 0 7.977 2.308 8.182 5.126z" stroke="#D4B982" stroke-miterlimit="10"/><path d="M456.563 129.938c.062-1.567-2.112-2.923-4.855-3.03-2.743-.107-5.017 1.076-5.078 2.643-.061 1.567 2.113 2.923 4.856 3.03 2.743.107 5.016-1.076 5.077-2.643z" fill="#D4B982"/><path d="M495.787 60.456c-.102-.49-1.207-.592-2.311-.45-1.105.144-4.071.511-4.664.981-.614.47-.573.817-.9.858-.307.04-.348-.306-1.043-.613-.696-.306-2.414-.102-3.519.041-1.104.143-2.168.388-2.127.899.02.51.225 1.389.45 1.532.225.142.225.122 1.104 2.124.491 1.123 1.228 1.756 2.66 1.45 1.82-.388 1.943-2.472 2.086-3.33.143-.857.266-1 .553-1.02.286-.041.47.06.818.857.347.797.613 2.655 2.475 2.758 2.455.142 3.498-.695 3.846-2.268.45-2.124.347-2.124.531-2.328.082-.082 1.821.163 1.821.163l-.041-.633c-.02-.04-1.698-.898-1.739-1.021zm-8.877 4.269c-.062 1.082-.594 2.083-1.801 2.226-1.125.143-1.636-.45-2.25-1.88-.532-1.245-.552-2.246-.368-2.593.184-.347.798-.327 2.189-.429 1.391-.102 1.861-.123 2.086.49.103.245.205 1.103.144 2.186zm7.977-1.164c-.225 1.531-.797 2.287-2.332 2.47-2.168.266-2.598-.592-2.925-1.633-.327-1.042-.429-1.9-.409-2.145.061-.653.532-.735 1.902-1 1.371-.266 3.212-.572 3.478-.286.266.285.491 1.245.286 2.593z" fill="#5C5C5C"/><path d="M510.556 57.066a20.936 20.936 0 00-.613-3.268c-.737-2.86-2.496-5.27-5.094-6.679-3.334-1.797-7.896-2.165-11.537-1.144-2.107.593-2.904 1.695-3.989 1.675-.838-.02-1.882-.592-2.945-.98-8.264-2.962-6.873 5.106-5.994 7.332.389.98 2.271 1.695 2.516 2.104.246.408.225 2.41.389 3.288.164.878 1.023 1.205 1.023 1.205s.041-2.594.081-2.941c.103-.92.41-1.88 1.228-2.43.839-.572 1.984-.654 2.966-.838 1.023-.184 5.768.735 6.075 1 1.535 1.328 1.944 4.33 2.373 6.108.205.837.409 1.389.757 1.368.266-2.43 1.105-2.512 2.557-1.675.777.45 1.227 1.981 1.248 3.31.041 1.551-.839 3.267-2.455 3.594-.593.122 1.166 3.451 1.984 4.289.266.266.532.551.859.756.307.183.655.265 1.003.367.389.102.777.204 1.186.327.532.143 1.084.286 1.616.143.88-.245 1.33-1.164 1.719-1.981.654-1.328 1.391-2.635 1.922-4.024 1.207-3.288 1.555-7.25 1.125-10.906z" fill="#5C5C5C"/><path d="M659.352 179.265H554.823l12.519-9.253v-45.138a6.825 6.825 0 016.832-6.821h85.178c3.764 0 6.832 3.043 6.832 6.821v47.569a6.826 6.826 0 01-6.832 6.822z" fill="#D4B982"/><path opacity=".45" d="M657.102 126.855h-47.765v4.555h47.765v-4.555zM657.102 133.677h-47.765v4.554h47.765v-4.554zM657.102 140.499h-47.765v4.555h47.765v-4.555zM657.102 147.137h-47.765v4.554h47.765v-4.554zM642.66 155.082h-33.323v4.555h33.323v-4.555z" fill="#fff"/><path d="M598.66 161.883H582.5c-3.825 0-6.935-3.104-6.935-6.924v-21.18c0-3.819 3.11-6.924 6.935-6.924h16.16c3.825 0 6.935 3.105 6.935 6.924v21.201c0 3.819-3.11 6.903-6.935 6.903z" fill="#B89B61"/><path opacity=".45" d="M605.594 166.254h-30.009v3.758h30.009v-3.758z" fill="#fff"/><path d="M593.546 149.588h-10.883a1.356 1.356 0 01-1.309-1.001l-2.086-7.72c-.225-.858.409-1.716 1.309-1.716h15.076c.9 0 1.555.858 1.309 1.716l-2.086 7.72a1.398 1.398 0 01-1.33 1.001z" fill="#fff"/><path d="M595.469 151.324h-13.112a.271.271 0 01-.266-.266.27.27 0 01.266-.265h12.907l4.562-15.891a.283.283 0 01.266-.204h2.843c.143 0 .266.123.266.266a.27.27 0 01-.266.265h-2.659l-4.562 15.911c-.02.102-.122.184-.245.184zM584.361 153.468a1.596 1.596 0 01-3.191 0 1.597 1.597 0 013.191 0zM594.303 155.061a1.594 1.594 0 100-3.186 1.594 1.594 0 100 3.186z" fill="#fff"/><path d="M271.06 116.215h133.167l-15.955-11.785V31.699c0-4.8-3.887-8.68-8.694-8.68H271.06c-4.807 0-8.694 3.88-8.694 8.68v75.836c0 4.799 3.887 8.68 8.694 8.68z" fill="#D4B982"/><g opacity=".45" fill="#fff"><path opacity=".45" d="M273.939 42.305h60.856v-5.821h-60.856v5.82zM273.939 50.996h60.856v-5.82h-60.856v5.82zM273.939 59.688h60.856v-5.82h-60.856v5.82zM273.939 68.14h60.856v-5.821h-60.856v5.82zM273.939 76.611h60.856v-5.82h-60.856v5.82zM273.939 91.991h60.856v-5.82h-60.856v5.82zM273.932 101.138h103.875v-5.821H273.932v5.821z"/></g><path d="M348.402 81.126h20.579c4.868 0 8.816-3.942 8.816-8.803V45.302c0-4.861-3.948-8.803-8.816-8.803h-20.579c-4.868 0-8.816 3.942-8.816 8.803v27.021c-.02 4.861 3.928 8.803 8.816 8.803z" fill="#B89B61"/><path opacity=".45" d="M339.574 91.48h38.232v-4.8h-38.232v4.8z" fill="#fff"/><path d="M354.908 65.46h13.869c.778 0 1.473-.53 1.678-1.266l2.659-9.845c.307-1.102-.532-2.185-1.677-2.185h-19.208a1.739 1.739 0 00-1.678 2.185l2.659 9.845c.246.735.921 1.266 1.698 1.266z" fill="#fff"/><path d="M352.474 67.666h16.712a.358.358 0 00.348-.347.358.358 0 00-.348-.347H352.74l-5.81-20.24a.349.349 0 00-.327-.246h-3.641a.358.358 0 00-.348.348c0 .183.164.347.348.347h3.375l5.81 20.24a.331.331 0 00.327.245zM366.629 70.382c0 1.124.9 2.022 2.025 2.022a2.015 2.015 0 002.025-2.022c0-1.123-.9-2.022-2.025-2.022a2.028 2.028 0 00-2.025 2.022zM351.921 70.382c0 1.124.9 2.022 2.026 2.022a2.015 2.015 0 002.025-2.022c0-1.123-.9-2.022-2.025-2.022a2.042 2.042 0 00-2.026 2.022z" fill="#fff"/><path d="M547.582 484.221c-.491.96-2.844 3.166-6.117 4.636-3.272 1.45-10.207 2.145-6.341 3.431 3.846 1.287 8.346.511 10.617.143 2.27-.367 4.48-.408 7.159-.429 3.539-.02 3.56-.245 3.089-4.227-.695-5.495-6.832-6.659-8.407-3.554zM611.649 482.239c-.204 1.103 1.371 4.453-1.432 6.924-2.802 2.451-9.205 5.045-4.97 5.147 4.234.102 8.284-.878 10.453-1.94 2.147-1.062.429-2.737 3.109-3.575 3.518-1.102 2.782-3.696.961-5.289-2.352-5.29-7.487-4.861-8.121-1.267z" fill="#292620"/><path d="M598.169 370.701s8.428-24.733-15.485-45.117c0 0-12.805 5.086-23.074 5.698-8.08.491-12.192-.265-12.192-.265s-.675 21.976-.716 33.823l51.467 5.861zM544.779 411.775c-.47-11.07 11.558-9.62 15.976-1.348 9.164 17.095-3.375 56.432-5.032 75.08-1.718.674-4.603 1.185-6.341.388-1.187-.552-1.841-2.042-1.841-2.042.266-22.835-2.271-60.232-2.762-72.078z" fill="#5C5C5C"/><path d="M560.346 413.45c-1.391 4.514-16.712 9.273-15.464-7.169.552-7.291 2.025-47.548 2.311-51.428.287-3.881.941-9.559 2.803-10.253 9.389-3.534 26.019 8.721 23.544 23.304-1.657 9.722-10.33 36.192-13.194 45.546zM584.484 419.741c-3.702-10.436 8.346-12.275 15.158-5.841 15.996 15.053 16.61 50.53 20.537 68.83-2.229 1.512-5.748 2.063-6.995 2.002-1.31-.062-1.903-.981-1.903-.981-6.505-21.935-22.849-52.858-26.797-64.01z" fill="#5C5C5C"/><path d="M600.296 416.33c.409 4.698-12.355 14.42-17.387-1.287-2.23-6.964-11.783-48.12-12.99-51.816-1.186-3.697-.859-11.356.614-12.704 7.384-6.802 24.035-.817 27.206 13.623 2.148 9.64 1.698 42.442 2.557 52.184z" fill="#5C5C5C"/><path d="M534.47 236.146c.429-.449.879-.919 1.268-1.409 3.027-3.86 3.477-7.291 6.28-11.785.409-.653.961-2.349 2.045-3.901 1.126-1.613 3.846-3.349 4.562-3.738 1.309-.694.184 2.206.184 2.206s1.105-1.613 2.189-1.491c.409.041.491 2.513.491 2.921a20.54 20.54 0 01-2.291 9.763c-.368.694-.777 1.43-.777 2.226 1.002-.02 1.841-.715 2.638-1.307.798-.592 1.821-1.123 2.762-.797-.123.409-.327.777-.532 1.144-1.186 2.247-2.537 4.636-4.848 5.719-1.371.654-2.966.776-4.316 1.471-2.414 1.286-3.6 4.268-6.055 5.473" fill="#D4B982"/><path d="M548.85 237.003l-7.221-3.022a1.346 1.346 0 01-.716-1.736l6.423-15.319a1.35 1.35 0 011.739-.715l7.221 3.023c.675.286.981 1.062.715 1.736l-6.423 15.319c-.286.694-1.063 1-1.738.714z" fill="#292620"/><path d="M556.621 220.514l-8.097-3.381-6.638 15.847 8.096 3.381 6.639-15.847zM556.603 251.791s-6.178.327-11.701 1.982c-8.326 2.491-11.189 6.352-14.074 7.945 5.585-7.088 11.824-22.12 11.824-22.12s-7.508-6.168-8.367-4.698c-.859 1.451-32.381 38.296-31.399 44.26.409 2.451 4.05 4.881 7.282 4.779 8.939-.306 19.31-3.553 30.193-7.107 4.786-1.573 6.259 1.797 6.259 1.797" fill="#5C5C5C"/><path d="M530.829 261.697s-3.969 7.986-5.155 8.517c-1.187.531 2.884-1.654 5.134-3.962 2.23-2.308 5.298-8.354 5.298-8.354-1.186.47-5.277 3.799-5.277 3.799z" fill="#5C5C5C"/><path d="M543.286 222.993c.388.266.491.797.552 1.266.266 1.777.532 3.636-.164 5.29-.45 1.062-1.268 1.961-2.127 2.717a16.977 16.977 0 01-3.253 2.226" fill="#D4B982"/><path d="M556.787 209.696c-2.107.613-3.212 3.329-3.928 5.188-.859 2.247-1.289 4.616-1.575 6.985-.205 1.655-.307 3.391.348 4.923.327.776.859 1.47 1.37 2.144.287.388.594.776.982 1.042.389.265.921.408 1.371.224.654-.245.92-1.021 1.104-1.695 1.207-4.412 2.537-8.884 5.032-12.724" fill="#292620"/><path d="M554.455 223.667c-.041-1.409-1.514-2.328-2.803-.858-1.063 1.205-1.35 3.493-1.411 5.188-.082 2.022 1.493 2.431 2.782 2.696" fill="#D4B982"/><path d="M540.381 259.042c2.598-2.982 10.842-7.883 21.867-7.536 7.589.245 28.291 1.491 30.602 6.556 1.187 2.594 2.455 29.146.716 38.316-1.309 6.883-4.623 23.937-4.623 28.063 0 4.126 2.209 5.882 1.187 7.067-2.312 2.676-18.145 3.799-25.57 3.799-6.607 0-17.878-1.757-18.451-3.881-.839-3.145 1.288-3.023 1.575-6.311.286-3.288 1.125-24.672-.082-28.165-2.189-6.311-3.252-16.605-4.991-21.282-1.33-3.513-4.828-13.644-2.23-16.626z" fill="#5C5C5C"/><path d="M587.757 280.528c.798 1.634 6.137 10.233 6.137 10.233l.225 1.021c-.123 1.777-.307 3.35-.553 4.596-1.309 6.883-4.623 23.937-4.623 28.063 0 4.125 2.128 5.8 1.187 7.066-1.821 2.472-31.666 8.027-30.213 1.124.122-.633 25.058-19.608 25.181-20.241 1.145-5.453 2.147-9.375 2.659-13.337 1.207-9.559-.777-20.159 0-18.525z" fill="#5C5C5C"/><path d="M556.255 242.008s-.061 8.64-.409 8.987c-.348.347-2.066 1.164-2.066 1.164s1.227 7.516 3.109 6.944c1.882-.551 14.319-6.842 14.319-6.842s-1.759-.715-1.759-1.409c0-.695 1.677-14.277 1.677-14.277" fill="#D4B982"/><path d="M564.887 210.636c-1.82.49-6.586-.49-7.916 1.491-1.309 1.981-2.475 6.74-2.966 8.067-.982 2.615-1.616 5.413-2.332 8.129-.941 3.513-2.475 9.967.982 12.908.982.838 1.432 1.124 2.659 1.348 1.637.286 3.252.634 4.889.92 2.536.449 5.339.98 7.855.163 3.355-1.083 5.196-5.698 6.055-8.823l4.95-17.933-14.176-6.27z" fill="#D4B982"/><path d="M555.948 262.473s-.737 33.72-2.107 54.226l4.971 6.843 3.416-8.558s1.432-24.734-3.232-52.266l-3.048-.245zM554.803 259.512l.122.47a9.837 9.837 0 001.023 2.491l3.048.225s2.066-1.082 2.353-2.247c.266-1.164-3.396-3.063-3.396-3.063l-.45.184a6.845 6.845 0 00-2.659 1.899l-.041.041z" fill="#292620"/><path d="M569.654 248.748s1.943 1.205 3.477 3.513c-1.575 3.574-5.114 9.926-9 12.827-1.821-4.882-6.178-7.721-6.178-7.721s10.617-1.858 11.701-8.619zM557.932 257.388s-3.804 1.511-6.055 5.759c0 0-.736-5.739.819-10.682 0 0 2.495-3.186 3.354-3.247-.347 4.064 1.882 8.17 1.882 8.17z" fill="#fff"/><path d="M558.424 332.651c-3.785.572-5.176 1.961-7.303 4.065-.184.163-.348.388-.327.633.041.306.409.429.695.49 1.759.286 2.046-.837 3.682-1.511l3.314-1.41" fill="#B89B61"/><path d="M545.598 305.2l13.378 42.789c.368 1.144-.287 2.145-1.412 2.145l-27.901 2.451c-1.003 0-2.025-.777-2.332-1.798l-14.381-42.135c-.368-1.144 1.309-2.798 2.414-2.798l27.902-2.451c1.002-.021 2.025.755 2.332 1.797z" fill="#D4B982"/><path d="M544.677 306.304l13.194 42.136c.368 1.143-.286 2.144-1.411 2.144l-27.902 2.451c-1.002 0-2.025-.776-2.332-1.797l-13.194-42.136c-.368-1.143.286-2.144 1.412-2.144l27.901-2.451c1.003 0 2.025.776 2.332 1.797z" fill="#B89B61"/><path d="M522.401 304.935l.982 3.697 13.051-1.144-1.064-3.676-12.969 1.123z" fill="#fff"/><path d="M524.876 301.504c.266.858 1.309 4.187 1.309 4.187l6.239-.572-1.309-4.187c-.573-1.797-2.414-3.125-4.132-2.982-1.739.163-2.68 1.756-2.107 3.554zm1.37-.082c-.307-1.001.205-1.899 1.166-1.981.962-.082 2.005.654 2.312 1.675.307 1.001-.205 1.899-1.166 1.981-.962.082-2.005-.654-2.312-1.675z" fill="#fff"/><path d="M569.04 329.67c-2.925.613-10.719 2.941-11.558 3.329-.981.47-4.213 2.9-4.97 3.676-2.946 2.942-1.432 4.31-2.598 8.293-.062.204-.062.408-.082.633 0 .408.552.776 1.125.388.307.511 1.207.204 1.657-.368 0 .409.552.654 1.452.143.491-.265.389-.245 1.514-1.246.798-.714 1.739-1.286 3.171-1.919.961-.429 2.209-.838 3.089-1.41 1.186-.776 3.293-.96 4.336-4.35.225-.756.962-1.205 1.637-1.614 1.595-1 3.17-2.001 4.766-2.982" fill="#D4B982"/><path d="M587.041 274.85c1.248 4.412 6.403 35.049 6.403 35.049l-29.089 21.037 2.414 6.352s34.796-11.663 37.537-19.649c2.741-7.965 2.618-43.994-7.058-56.636-3.068-4.024-9.246-6.046-9.246-6.046" fill="#5C5C5C"/><path d="M557.196 340.698c-.757.736-1.616 1.348-2.23 2.145-.654.796-1.289 1.654-2.148 2.308.512-.94 1.064-1.818 1.78-2.615a4.964 4.964 0 011.227-1.041c.45-.327.921-.552 1.371-.797zM555.6 338.758c-.511.429-.859 1.001-1.247 1.511-.348.552-.778 1.083-1.003 1.655-.532 1.225-1.207 2.389-2.066 3.41.45-1.266 1.064-2.43 1.616-3.615.307-.653.716-1.164 1.166-1.674.45-.47.941-.981 1.534-1.287zM553.76 337.206c-.327.552-.757 1.062-1.146 1.552-.429.47-.572 1.062-.838 1.655l-1.371 3.574c.021-1.307.389-2.574.941-3.758.266-.572.573-1.205 1.064-1.675.409-.47.941-.858 1.35-1.348z" fill="#B89B61"/><path d="M575.974 231.714c-1.146-.674-2.005-1.368-2.762-.286-.388.572-.634 1.369-1.309 1.573-.675.204-1.37-.409-1.534-1.083-.164-.674.041-1.389.246-2.042.45-1.471.92-2.941 1.37-4.412.45-1.45.9-3.023.327-4.411-.286-.715-.818-1.287-1.391-1.777-1.882-1.614-4.357-2.41-6.791-2.901-2.434-.49-4.93-.755-7.303-1.491-1.002-.306-1.984-.714-2.782-1.388-1.288-1.083-1.943-2.799-1.963-4.494-.021-1.695.552-3.329 1.431-4.779.185.572.43 1.144.737 1.654a6.036 6.036 0 011.33-2.083c.715 3.942 17.366 2.635 21.274 4.371 2.7 1.205 4.929 2.001 4.848 6.372.081.286.306.49.531.695 2.394 2.185 3.437 4.861 3.723 8.823.369 4.84-2.454 10.09-5.236 14.093-.696 1.001-1.084 1.715-2.066 2.451-.982.735-2.68 1.103-3.867.878-1.206-.225-3.579-.123-3.6-1.348-.02-.878 1.862-2.431 2.373-3.145" fill="#292620"/><path d="M571.618 236.289s-.205.817.306 1.45c.45.552 1.35.47 1.964.286 1.78-.572 2.987-2.288 3.334-4.064.389-2.104-.736-4.187-2.659-3.656-1.125.326-1.82 1.593-1.82 2.757M556.255 242.743l5.339.981s-1.78 2.001-5.421 2.001" fill="#D4B982"/><g opacity=".3"><g opacity=".3"><path opacity=".3" d="M136.542 151.222l7.16 3.615-3.58-8.782" fill="#3939D3"/><path opacity=".3" d="M114.327 140.009c0 7.884 6.771 14.256 15.137 14.256 8.367 0 15.138-6.392 15.138-14.256 0-7.884-6.771-14.256-15.138-14.256-8.366 0-15.137 6.393-15.137 14.256z" fill="#3939D3"/></g><path opacity=".3" d="M125.762 135.332v10.192c0 .817.9 1.327 1.595.919l8.837-5.106c.716-.409.716-1.43 0-1.859l-8.837-5.106c-.716-.388-1.595.143-1.595.96z" fill="#FEFEFE"/></g><g opacity=".3"><g opacity=".3"><path opacity=".3" d="M402.877 135.905l5.216-5.637-7.159 1.409" fill="#3939D3"/><path opacity=".3" d="M383.526 137.212c0 5.719 4.909 10.334 10.985 10.334 6.075 0 10.984-4.636 10.984-10.334 0-5.719-4.909-10.335-10.984-10.335-6.076 0-10.985 4.616-10.985 10.335z" fill="#3939D3"/></g><g opacity=".3"><path opacity=".3" d="M392.383 142.175c2.168.041 4.357.062 6.341-.081.634-.041 1.166-1.083.409-1.41.328-.163.655-.347.798-.714.143-.348-.02-.838-.388-.94.756.184 1.043-1.042.47-1.45.307-.266.573-.633.634-1.062.062-.409-.102-.899-.45-1.103-.225-.123-.511-.143-.777-.143-.9 0-1.8-.02-2.7-.02.245-1.471.306-3.064-.389-4.351-.225-.388-.798-.858-1.248-.551-.429.286-.307.98-.286 1.409.082 1.818-.9 3.656-2.455 4.514-.02.02.082 3.921.041 5.902zM391.606 136.293h-3.273v5.862h3.273v-5.862z" fill="#FEFEFE"/></g></g><g clip-path="url(#clip0)"><path d="M278.702 379.147c-.083-.599-.609-.93-1.044-.966-.434-.036-9.622-.715-9.622-.715s-6.382-6.31-7.082-7.009c-.701-.698-2.069-.486-2.601-.33l-3.571 1.099c-2.131-6.11-5.893-11.725-12.512-11.725-.182 0-.37.007-.558.018-1.883-2.48-4.214-3.557-6.228-3.557-15.417 0-22.783 19.198-25.092 28.954a9747.622 9747.622 0 00-10.791 3.334c-3.343 1.045-3.449 1.15-3.888 4.288-.331 2.377-9.08 69.778-9.08 69.778l68.178 12.725 36.941-7.961s-12.968-87.335-13.05-87.933zm-27.688-6.76l-5.769 1.778c.002-.405.004-.803.004-1.239 0-3.797-.529-6.855-1.378-9.279 3.41.427 5.681 4.292 7.143 8.74zm-11.373-7.987c.948 2.367 1.564 5.763 1.564 10.346 0 .234-.002.449-.004.665l-11.914 3.676c2.294-8.82 6.594-13.08 10.354-14.687zm-4.581-4.319c.666 0 1.336.225 1.978.665-4.941 2.316-10.237 8.149-12.474 19.798l-9.418 2.905c2.62-8.885 8.84-23.368 19.914-23.368z" fill="#95BF46"/><path d="M277.658 378.182c-.434-.036-9.622-.715-9.622-.715s-6.382-6.31-7.082-7.009c-.262-.26-.616-.393-.985-.45l-5.155 105.033 36.938-7.96s-12.969-87.334-13.05-87.933c-.083-.598-.609-.93-1.044-.966z" fill="#5E8E3E"/><path d="M242.27 398.515l-4.555 13.496s-3.991-2.121-8.883-2.121c-7.171 0-7.532 4.483-7.532 5.612 0 6.165 16.131 8.527 16.131 22.965 0 11.36-7.233 18.675-16.986 18.675-11.703 0-17.688-7.255-17.688-7.255l3.133-10.314s6.153 5.262 11.344 5.262c3.392 0 4.772-2.661 4.772-4.605 0-8.04-13.235-8.399-13.235-21.612 0-11.12 8.013-21.882 24.188-21.882 6.232 0 9.311 1.779 9.311 1.779z" fill="#fff"/></g><defs><clipPath id="clip0"><path fill="#fff" transform="translate(186.612 355.644)" d="M0 0h105.357v119.694H0z"/></clipPath></defs></svg>