<svg width="447" height="472" fill="none" xmlns="http://www.w3.org/2000/svg"><path opacity=".3" d="M207.121 70.75l9.421.635a73.426 73.426 0 014.264-12.137l-7.815-5.245c-2.133-1.432-2.68-4.328-1.225-6.47l9.116-13.415c1.459-2.147 4.376-2.73 6.516-1.303l7.921 5.288a75.602 75.602 0 019.77-8.442l-4.177-8.577c-1.126-2.313-.139-5.122 2.202-6.274l14.677-7.223c2.351-1.157 5.175-.218 6.309 2.099l4.206 8.605a75.138 75.138 0 0112.725-2.52l.732-9.65c.196-2.59 2.476-4.566 5.094-4.411l16.404.968c2.629.155 4.602 2.388 4.404 4.986l-.734 9.678a74.542 74.542 0 0112.337 4.06l5.533-8.07c1.492-2.176 4.478-2.772 6.669-1.333l13.73 9.017a4.657 4.657 0 011.27 6.563l-5.551 8.07a74.192 74.192 0 018.614 9.707l8.883-4.292c2.406-1.162 5.298-.2 6.459 2.148l7.268 14.706c1.164 2.355.151 5.202-2.26 6.36l-8.818 4.233a72.623 72.623 0 012.483 12.793l9.763.66c2.672.18 4.68 2.45 4.48 5.07l-1.243 16.389c-.198 2.62-2.527 4.592-5.199 4.405l-9.683-.682a73.36 73.36 0 01-4.345 12.395l7.966 5.319c2.213 1.477 2.785 4.433 1.277 6.604l-9.412 13.558c-1.504 2.166-4.511 2.72-6.714 1.241l-7.904-5.305a75.637 75.637 0 01-10.086 8.561l4.131 8.452c1.155 2.362.149 5.193-2.248 6.321l-14.949 7.041c-2.385 1.125-5.25.122-6.398-2.235l-4.076-8.372a75.26 75.26 0 01-13.033 2.376l-.703 9.256c-.198 2.598-2.487 4.537-5.11 4.33l-16.381-1.292c-2.614-.207-4.572-2.473-4.376-5.064l.699-9.228a74.308 74.308 0 01-12.411-4.325l-5.23 7.603c-1.47 2.136-4.407 2.679-6.56 1.211l-13.434-9.161a4.676 4.676 0 01-1.232-6.511l5.245-7.648a74.246 74.246 0 01-8.466-9.84l-8.382 4.024a4.687 4.687 0 01-6.251-2.184l-6.996-14.524a4.677 4.677 0 012.189-6.236l8.399-4.057a72.61 72.61 0 01-2.335-12.663l-9.343-.657a4.636 4.636 0 01-4.302-4.979l1.219-16.063a4.711 4.711 0 015.007-4.344zm84.919-28.864c-26.401-1.677-49.291 18.093-51.269 44.15-1.977 26.056 17.69 48.76 44.07 50.724 26.539 1.975 49.794-17.771 51.792-44.113 2-26.344-18.032-49.073-44.593-50.761z" fill="#BDBDBD"/><path d="M87.733 310.358c-13.03 8.998-13.997 24.327-12.96 35.528 1.345.714 1.935 1.469 3.127 2.486 10.754 9.186 17.3 10.813 29.331 18.195 2.589 1.588 11.609 3.939 15.354 4.664l7.007 1.239s27.232-24.229 15.236-41.154c-11.995-16.924 10.951-43.217 21.39-58.643 6.409-9.473 6.307-15.86 8.104-19.719 19.018-40.85 37.275-46.141 35.301-63.224-2.18-18.86-25.054-17.809-28.509-38.199-3.9-23.024 22.646-39.822 14.088-60.784-1.468-3.594-3.074-7.248-6.756-10.887-9.089-8.986-21.251-7.426-24.165-20.462-5.857-26.202-28.016-46.12-53.671-35.766-25.32 10.218-27.157 56.025 2.335 109.079 16.671 40.122 13.078 47.631.793 64.069-8.603 11.512-39.559 37.025-28.44 59.524 11.119 22.498 17.333 43.769 2.435 54.054z" fill="#292620"/><g opacity=".3" fill="#fff"><path opacity=".3" d="M100.468 363.616l.97.374a653.51 653.51 0 006.124-16.087c14.431-39.504 24.352-79.011 29.486-117.427 4.349-32.55 5.331-64.772 2.919-95.77-1.94-24.931-6.077-49.208-12.297-72.16-4.373-16.134-9.719-31.453-15.894-45.527-1.075-2.453-2.32-4.911-3.522-7.288-1.602-3.166-3.259-6.442-4.531-9.731l-.97.296c1.29 3.334 2.958 6.63 4.571 9.82 1.197 2.366 2.434 4.812 3.499 7.24 6.156 14.03 11.486 29.301 15.846 45.39 6.204 22.895 10.33 47.115 12.266 71.987 2.409 30.935 1.428 63.093-2.914 95.58-5.125 38.35-15.031 77.793-29.44 117.237a647.675 647.675 0 01-6.113 16.066z"/><path opacity=".3" d="M140.216 172.485l1.033.078c1.585-41.546 50.191-94.351 50.681-94.88l-.792-.658c-.492.533-49.325 53.582-50.922 95.46zM124.914 287.882l1.021.191c4.601-27.969-33.189-71.233-33.57-71.666l-.785.6c.38.429 37.863 43.345 33.334 70.875zM120.832 303.477l.977.356c6.42-17.324 25.188-37.307 52.846-56.265 1.392-.954 1.392-.954 1.457-1.125l-.973-.367.486.184-.385-.338c-.083.074-.608.434-1.219.85-27.814 19.069-46.705 39.206-53.189 56.705zM104.175 353.813l1.032.082c.869-20.432-23.503-41.454-23.749-41.663l-.675.705c.243.208 24.239 20.911 23.392 40.876zM101.819 364.409c11.303-12.182 26.848-21.552 47.522-28.647l-.393-.914c-20.833 7.149-36.507 16.605-47.921 28.905l.792.656zM130.099 76.307l1.033.024c-.492-23.202 4.715-47.446 6.426-55.411.414-1.928.558-2.608.563-2.855L137.087 18c-.007.189-.243 1.29-.543 2.685-1.718 7.995-6.941 32.315-6.445 55.622zM136.838 114.174l.981-.263c-7.261-20.955-48.7-42.133-50.46-43.025l-.458.85c.427.216 42.812 21.876 49.937 42.438z"/></g><path d="M77.938 365.494c2.85.8 3.548 29.667 18.962 15.119 3.851-3.634 12.609-18.133 32.948-10.38 3.948 1.504 7.897 3.009 11.845 4.515 7.038-7.326 12.313-15.533 1.924-23.867-16.134-12.94-3.23-43.543 6.538-52.173 12.09-10.682 39.684-36.119 15.062-56.491-20.499-16.957-37.24-24.016-26.371-53.234 10.867-29.218 2.109-54.005-26.161-63.927-29.751-10.442-37.603-56.701-66.656-54.599-50.621 3.663-40.744 82.327 1.556 121.764 42.301 39.436 5.977 44.287-5.624 67.054a44.187 44.187 0 00-3.055 9.98c-4.813 26.851 18.987 41.88 28.81 69.678 13.394 37.914 5.42 25.215 10.222 26.561z" fill="#5C5C5C"/><g opacity=".3" fill="#fff"><path opacity=".3" d="M107.048 357.472l1.454.307c20.315-100.525-11.033-211.465-81.813-289.528l-1.106.901c70.48 77.736 101.695 188.213 81.465 288.32z"/><path opacity=".3" d="M113.161 301.616l1.37.574c16.072-36.983 62.291-51.72 62.758-51.866l-.498-1.341c-.473.146-47.304 15.066-63.63 52.633zM110.253 338.866l1.471-.107c-4.605-40.923-75.07-75.915-75.783-76.262l-.645 1.248c.703.346 70.439 34.976 74.957 75.121zM99.33 201.156l1.478.015c-.737-32.556 36.462-66.62 36.838-66.96l-1.035-1.035c-.382.343-38.034 34.823-37.282 67.98zM74.51 139.451l1.194-.796C52.689 108.056.838 97.955.317 97.857L.07 99.24c.516.096 51.784 10.09 74.44 40.211z"/></g><path d="M137.987 83.817c.641-9.493 7.702-17.206 16.867-17.524l.389-.015 269.579-9.37.483-.016c11.193-.389 20.412 8.02 20.699 18.878.006.172.067.345.067.518V317.71c0 11.109-9.337 19.768-20.706 19.252l-270.006-12.284c-9.617-.438-17.327-9.083-17.327-19.216V85.231c0-.478-.078-.945-.045-1.414z" fill="#5C5C5C"/><path d="M131.389 85.421V305.23c0 10.113 7.644 18.724 17.224 19.16l268.953 12.228c11.32.514 20.656-8.122 20.656-19.205V76.515c0-.173-.088-.344-.093-.516-.285-10.837-9.468-19.225-20.61-18.837L148.583 66.51c-9.13.318-16.522 8.025-17.198 17.502-.034.467.004.934.004 1.41z" fill="#B89B61"/><path d="M131.389 85.421v13.673l306.833-7.595V76.515c0-.173-.088-.344-.093-.516-.3-10.835-9.957-19.207-21.097-18.82l-268.865 9.343c-9.126.318-16.144 8.012-16.784 17.488-.032.468.006.935.006 1.411z" fill="#5C5C5C"/><path d="M151.319 85.77c0 2.907 2.013 5.204 4.769 5.129l188.336-5.104c3.094-.083 5.61-2.654 5.61-5.741v-6.238c0-3.087-2.627-5.51-5.719-5.41L156.14 74.47c-2.756.09-4.821 2.519-4.821 5.426v5.874zM400.94 75.245c0 3.444 2.849 6.157 6.368 6.059 3.526-.098 6.391-2.982 6.391-6.437 0-3.458-2.865-6.169-6.391-6.058-3.521.11-6.368 2.992-6.368 6.436zM384.155 75.744c0 3.427 2.819 6.127 6.305 6.03 3.492-.098 6.33-2.965 6.33-6.404 0-3.44-2.836-6.14-6.33-6.03-3.484.108-6.305 2.975-6.305 6.404zM367.532 76.236c0 3.41 2.793 6.098 6.246 6.002 3.459-.097 6.267-2.951 6.267-6.374 0-3.423-2.808-6.11-6.267-6.001-3.452.11-6.246 2.963-6.246 6.373zM284.805 181.395l127.445.12v-62.766l-127.445 2.184v60.462zM152.528 132.024l119.593-1.723v-9.166l-119.593 2.049v8.84zM152.528 148.437l119.593-1.115v-9.165l-119.593 1.441v8.839zM152.528 164.851l119.593-.507v-8.51l-119.593.81v8.207zM152.528 181.266l119.593.102v-9.167l-119.593.225v8.84zM152.527 203.362l257.306 1.995v-9.544l-257.306-1.291v8.84zM152.527 219.776l257.306 3.307v-9.545l-257.306-2.601v8.839zM152.527 236.19l257.306 4.617v-9.545l-257.306-3.911v8.839zM152.527 252.604l257.306 5.929v-9.545l-257.306-5.223v8.839zM152.527 279.119l257.306 8.045v-9.544l-257.306-7.339v8.838zM152.527 295.533l257.306 9.357v-9.544l-257.306-8.651v8.838z" fill="#fff"/><path opacity=".4" d="M131.389 294.921v10.309c0 10.113 7.644 18.724 17.224 19.16l268.953 12.228c11.32.514 20.656-8.122 20.656-19.205V76.515c0-.173-.088-.344-.093-.516-.285-10.837-9.468-19.225-20.61-18.837l-18.851.654a94.62 94.62 0 01-3.977 12.986 86.287 86.287 0 01-5.132 10.929 78.75 78.75 0 01-7.791 11.47c-8.7 10.633-21.295 20.154-39.48 25.537a313.91 313.91 0 00-5.101 1.556c-19.171 6.035-37.266 13.892-52.586 25.124a114.836 114.836 0 00-12.108 10.191 105.322 105.322 0 00-8.335 9.078 103.133 103.133 0 00-5.729 7.731 105.399 105.399 0 00-5.423 9.063 109.745 109.745 0 00-6.066 13.548 119.814 119.814 0 00-2.945 9.014 126.738 126.738 0 00-1.936 7.655 144.077 144.077 0 00-1.702 9.001 156.09 156.09 0 00-1.061 8.102 168.64 168.64 0 00-.723 9.003 186.344 186.344 0 00-.28 7.656c-.053 2.933-.04 5.94.034 9.014.026 1.19.062 2.395.109 3.609.218 5.667-.161 10.581-1.071 14.842-.718 3.37-1.766 6.327-3.116 8.914-1.528 2.94-3.433 5.405-5.672 7.46-4.875 4.484-11.232 7.025-18.655 8.313-22.264 3.87-53.77-3.465-78.533-2.691z" fill="#fff"/><path d="M74.612 231.254v209.747c0 6.043 2.6 11.659 6.89 15.242 2.68 2.242 5.719 3.746 9.25 4.059l131.226 11.627c10.298.912 18.731-6.979 18.731-17.472V230.011c0-.163 0-.474-.005-.638-.26-10.263-8.633-18.532-18.772-18.38l-131.189 1.97c-8.75.131-15.66 7.606-16.306 16.781-.025.451.175 1.048.175 1.51z" fill="#292620"/><path d="M74.611 231.254v10.537l166.099-.505v-11.275c0-.163 0-.474-.005-.637-.274-10.264-9.08-18.526-19.213-18.375l-131.143 1.968c-8.747.131-15.298 7.6-15.909 16.774-.029.454.171 1.052.171 1.513z" fill="#292620"/><path d="M82.465 228.742c0 2.81 2.089 5.076 4.712 5.06l85.077-.533c2.82-.018 5.039-2.4 5.039-5.323v-1.466c0-2.924-2.234-5.271-5.053-5.24l-85.09.948c-2.623.029-4.684 2.331-4.684 5.142v1.412h-.001zM218.905 227.059c0 3.267 2.607 5.899 5.832 5.879 3.231-.02 5.858-2.698 5.858-5.981s-2.627-5.914-5.858-5.88c-3.223.037-5.832 2.713-5.832 5.982zM203.558 227.192c0 3.246 2.576 5.863 5.761 5.843 3.193-.02 5.787-2.682 5.787-5.943 0-3.264-2.594-5.88-5.787-5.844-3.185.035-5.761 2.695-5.761 5.944zM188.398 227.322c0 3.229 2.545 5.829 5.692 5.809 3.153-.02 5.717-2.665 5.717-5.907 0-3.243-2.564-5.843-5.717-5.809-3.147.035-5.692 2.679-5.692 5.907z" fill="#292620"/><path opacity=".3" d="M85.484 443.317l141.939 11.6V254.92l-141.94-.344v188.741z" fill="#292620"/><path d="M157.36 325.878l59.796 1.879v-59.319l-59.796-.463v57.903zM94.544 276.067l58.588.664v-8.793l-58.588-.456v8.585zM94.544 292.011l58.588 1.052v-8.794l-58.588-.843v8.585zM94.544 308.566l58.588 1.456v-8.794l-58.588-1.247v8.585zM94.544 323.897l58.588 1.829v-8.794l-58.588-1.62v8.585zM94.544 345.359L216.55 350.3v-9.025l-122.007-4.501v8.585zM94.544 361.302l122.007 5.758v-9.025l-122.007-5.318v8.585zM94.544 377.245l122.007 6.576v-9.025L94.544 368.66v8.585zM94.544 393.189l122.007 7.391v-9.025l-122.007-6.951v8.585zM94.544 418.944l122.007 8.711v-9.025l-122.007-8.271v8.585zM94.544 434.888l122.007 9.526v-9.025l-122.007-9.086v8.585z" fill="#292620"/><path d="M67.363 231.305V440.39c0 6.023 2.69 11.643 6.954 15.215 2.663 2.235 5.866 3.756 9.375 4.066l130.646 11.556c10.233.907 18.519-6.988 18.519-17.448V230.073c0-.162-.102-.474-.105-.638-.258-10.231-8.553-18.476-18.626-18.326l-130.448 1.957c-8.698.131-15.705 7.582-16.348 16.729-.03.454.033 1.05.033 1.51z" fill="#D4B982"/><path d="M67.365 231.305v10.502l165.496-.496v-11.238c0-.161-.102-.474-.106-.637-.272-10.232-8.994-18.47-19.063-18.319l-130.404 1.957c-8.695.131-15.346 7.577-15.952 16.723-.033.453.029 1.049.029 1.508z" fill="#292620"/><path d="M75.82 228.799c0 2.803 2.005 5.062 4.612 5.045l84.597-.536c2.803-.018 5.014-2.398 5.014-5.314v-1.461c0-2.914-2.267-5.249-5.07-5.218l-84.547.946c-2.609.029-4.607 2.328-4.607 5.131v1.407zM210.99 227.126c0 3.258 2.591 5.881 5.796 5.861 3.211-.02 5.822-2.689 5.822-5.961 0-3.272-2.611-5.896-5.822-5.862-3.205.037-5.796 2.706-5.796 5.962zM195.74 227.258c0 3.238 2.559 5.845 5.724 5.825 3.174-.02 5.751-2.672 5.751-5.925 0-3.252-2.577-5.859-5.751-5.825-3.165.035-5.724 2.688-5.724 5.925zM180.673 227.387c0 3.218 2.528 5.811 5.655 5.791 3.135-.02 5.682-2.657 5.682-5.889s-2.547-5.825-5.682-5.791c-3.127.035-5.655 2.671-5.655 5.889z" fill="#fff"/><path opacity=".3" d="M78.236 442.696l141.939 11.596v-199.39l-141.94-.349v188.143z" fill="#D4B982"/><path d="M151.319 325.667l59.193 1.878v-59.15l-59.193-.472v57.744zM87.295 275.974l57.38.67v-8.765l-57.38-.463v8.558zM87.295 291.866l57.38 1.056v-8.765l-57.38-.848v8.557zM87.295 308.369l57.38 1.457v-8.764l-57.38-1.25v8.557zM87.295 323.652l57.38 1.826v-8.765l-57.38-1.619v8.558zM87.294 345.046l122.01 4.953v-8.997l-122.01-4.514v8.558zM87.294 360.939l122.01 5.768v-8.997l-122.01-5.329v8.558zM87.294 376.831l122.01 6.583v-8.996l-122.01-6.145v8.558zM87.294 392.724l122.01 7.398v-8.995l-122.01-6.961v8.558zM87.294 418.398l122.01 8.715v-8.995l-122.01-8.278v8.558zM87.294 434.29l122.01 9.532v-8.998l-122.01-9.092v8.558z" fill="#fff"/><path opacity=".4" d="M74.224 455.603c2.663 2.235 5.913 3.756 9.423 4.067l130.669 11.555c10.234.907 18.543-6.988 18.543-17.448V230.073c0-.162-.102-.474-.105-.638-.258-10.231-8.553-18.476-18.627-18.326l-19.795.298c.788 3.823 1.645 7.688 2.399 12.406.391 2.452.738 5.126 1.038 7.828.347 3.129.603 6.435.743 9.782.174 4.374.132 8.892-.227 13.367-.373 4.675-1.094 9.328-2.273 13.784-3.201 12.108-9.774 22.769-21.92 28.636-8.551 4.132-16.417 7.904-23.431 11.95-4.151 2.395-8.011 4.888-11.537 7.617-3.314 2.553-6.333 5.322-9.038 8.403a54.57 54.57 0 00-8.331 12.675 62.498 62.498 0 00-3.283 8.492 75.233 75.233 0 00-1.84 7.243 95.742 95.742 0 00-1.344 8.543 120.87 120.87 0 00-.629 7.711 154.028 154.028 0 00-.187 8.59c.007 2.353.065 4.794.171 7.319a253.706 253.706 0 001.03 14.263c.441 4.451.657 8.467.67 12.081.016 3.15-.122 5.997-.394 8.578-.284 2.685-.714 5.08-1.274 7.218-.872 3.358-2.062 6.085-3.489 8.329-2.585 4.057-5.955 6.554-9.683 8.258-9.027 4.139-20.129 3.856-27.279 11.123z" fill="#fff"/><path d="M300.733 414.387c0 32.757 25.609 58.525 58.343 57.52 34.064-1.046 62.714-30.472 62.714-65.682 0-35.212-28.65-60.773-62.714-57.224-32.732 3.407-58.343 32.628-58.343 65.386z" fill="#292620"/><path d="M291.887 411.562c0 32.758 25.61 58.525 58.344 57.521 34.065-1.047 62.714-30.472 62.714-65.683 0-35.212-28.65-60.772-62.714-57.226-32.733 3.409-58.344 32.631-58.344 65.388z" fill="#5C5C5C"/><path d="M294.458 411.39c0 31.315 24.505 55.907 55.773 54.893 32.483-1.052 59.755-29.133 59.755-62.684 0-33.552-27.273-57.955-59.755-54.626-31.27 3.205-55.773 31.102-55.773 62.417z" fill="#5C5C5C"/><path opacity=".53" d="M297.165 411.206c0 27.497 19.866 49.526 46.291 51.995 2.22.209 4.495.278 6.8.202 30.866-1.038 56.752-27.738 56.752-59.601 0-27.707-19.573-48.869-44.977-51.863a53.78 53.78 0 00-11.773-.085c-29.746 3.01-53.093 29.541-53.093 59.352z" fill="#fff"/><path d="M343.456 463.201c2.22.209 4.495.278 6.8.202 30.866-1.038 56.752-27.737 56.752-59.601 0-27.706-19.573-48.868-44.977-51.863-8.58 6.701-16.26 15.274-17.583 25.432-2.158 16.558 14.381 24.18 16.206 42.177 1.501 14.848-5.609 31.389-17.198 43.653z" fill="#292620"/><path d="M357.183 442.984a7.081 7.081 0 006.086-3.489l21.581-36.389c2.02-3.405.932-7.826-2.43-9.871-3.361-2.046-7.725-.945-9.745 2.461l-14.982 25.261-19.805-39.405c-1.78-3.542-6.056-4.95-9.55-3.147-3.495 1.802-4.887 6.134-3.106 9.673l25.62 50.974a7.096 7.096 0 006.331 3.932z" fill="#fff"/><path d="M356.076 340.823c1.406 0 2.417-1.141 2.417-2.547v-3.819c0-1.407-1.011-2.548-2.417-2.548s-2.416 1.141-2.416 2.548v3.819c0 1.406 1.01 2.547 2.416 2.547zM356.076 328.088c1.406 0 2.417-1.141 2.417-2.547v-7.005c0-1.406-1.011-2.547-2.417-2.547s-2.416 1.141-2.416 2.547v7.005c0 1.408 1.01 2.547 2.416 2.547zm0-15.916c1.406 0 2.417-1.141 2.417-2.548v-7.004c0-1.406-1.011-2.547-2.417-2.547s-2.416 1.141-2.416 2.547v7.004c0 1.407 1.01 2.548 2.416 2.548zm0-15.917c1.406 0 2.417-1.141 2.417-2.547v-7.004c0-1.407-1.011-2.548-2.417-2.548s-2.416 1.141-2.416 2.548v7.004c0 1.406 1.01 2.547 2.416 2.547zm0-15.918c1.406 0 2.417-1.141 2.417-2.547v-7.004c0-1.407-1.011-2.548-2.417-2.548s-2.416 1.141-2.416 2.548v7.004c0 1.408 1.01 2.547 2.416 2.547zM356.075 262.512c1.406 0 2.416-1.141 2.416-2.548v-3.819c0-1.406-1.01-2.547-2.416-2.547-1.407 0-2.417 1.141-2.417 2.547v3.819c0 1.407 1.01 2.548 2.417 2.548zM286.799 410.026a2.548 2.548 0 00.231-5.084l-7.607-.703c-1.391-.117-2.639.899-2.77 2.302a2.547 2.547 0 002.302 2.77l7.606.704c.08.007.158.011.238.011zm-17.115-1.583a2.547 2.547 0 00.231-5.084l-7.606-.703a2.55 2.55 0 00-2.771 2.302 2.55 2.55 0 002.302 2.771l7.606.703c.08.007.16.011.238.011zm-17.114-1.583a2.546 2.546 0 00.231-5.083l-7.607-.704a2.556 2.556 0 00-2.77 2.303 2.547 2.547 0 002.302 2.77l7.606.704c.08.007.16.01.238.01zm-17.115-1.584a2.547 2.547 0 00.231-5.084l-7.606-.703a2.552 2.552 0 00-2.771 2.302 2.548 2.548 0 002.302 2.771l7.606.703c.08.007.16.011.238.011zm-17.114-1.582a2.548 2.548 0 00.23-5.084l-7.606-.703a2.547 2.547 0 00-.469 5.072l7.607.704c.08.007.159.011.238.011zM82.465 196.933c1.406 0 2.416-1.141 2.416-2.547v-1.274c0-1.406-1.01-2.547-2.416-2.547s-2.416 1.141-2.416 2.547v1.274c0 1.406 1.01 2.547 2.416 2.547zm0-10.823c1.406 0 2.416-1.141 2.416-2.548v-7.64c0-1.406-1.01-2.547-2.416-2.547s-2.416 1.141-2.416 2.547v7.64c0 1.407 1.01 2.548 2.416 2.548zm0-17.19c1.406 0 2.416-1.141 2.416-2.548v-7.64c0-1.406-1.01-2.547-2.416-2.547s-2.416 1.141-2.416 2.547v7.64c0 1.407 1.01 2.548 2.416 2.548zm0-17.19c1.406 0 2.416-1.141 2.416-2.548v-7.64c0-1.406-1.01-2.547-2.416-2.547s-2.416 1.141-2.416 2.547v7.64c0 1.407 1.01 2.548 2.416 2.548zm.06-17.252c.646 0 1.164-.093 1.615-.698h5.319c1.406 0 2.547-1.01 2.547-2.416 0-1.407-1.141-2.417-2.547-2.417h-7.003c-1.407 0-2.407 1-2.407 2.408v.636c0 1.408 1.07 2.487 2.476 2.487zm16.48-.696h7.639c1.406 0 2.547-1.01 2.547-2.416 0-1.407-1.141-2.417-2.547-2.417h-7.639c-1.406 0-2.547 1.01-2.547 2.417 0 1.406 1.141 2.416 2.547 2.416zm17.187 0h7.639c1.407 0 2.547-1.01 2.547-2.416 0-1.407-1.14-2.417-2.547-2.417h-7.639c-1.406 0-2.546 1.01-2.546 2.417 0 1.406 1.14 2.416 2.546 2.416z" fill="#292620"/><path d="M354.752 265.178c-5.535 0-10.022-4.488-10.022-10.024 0-5.536 4.487-10.024 10.022-10.024 5.536 0 10.023 4.488 10.023 10.024 0 5.536-4.487 10.024-10.023 10.024zM210.887 410.339c-5.535 0-10.023-4.488-10.023-10.024 0-5.536 4.488-10.024 10.023-10.024 5.535 0 10.022 4.488 10.022 10.024 0 5.536-4.487 10.024-10.022 10.024zM140.227 142.298c-5.536 0-10.023-4.488-10.023-10.024 0-5.536 4.487-10.024 10.023-10.024 5.535 0 10.022 4.488 10.022 10.024 0 5.536-4.487 10.024-10.022 10.024zM82.298 209.149c-5.535 0-10.023-4.488-10.023-10.024 0-5.536 4.488-10.024 10.023-10.024 5.535 0 10.022 4.488 10.022 10.024 0 5.536-4.487 10.024-10.022 10.024z" fill="#292620"/></svg>